ply
format ascii 1.0
comment Exported by RapidForm
element vertex 47
property float x
property float y
property float z
element face 90
property list uchar int vertex_index
end_header
20.000004 -12.500002 0.250000
25.968592 -12.500001 0.249996
29.999892 -12.500002 -0.249978
29.999875 -12.499976 0.249977
25.752174 -12.499993 -0.249999
29.999920 37.499928 0.249940
-13.312019 37.499873 0.249977
-29.999905 37.499698 -0.249950
7.817554 37.499878 -0.249987
29.999844 37.499891 -0.249980
-29.999759 37.499899 0.249976
5.506511 37.499882 0.249991
5.868383 9.618211 -0.250000
-29.999821 22.945184 0.249994
17.003926 17.592390 0.250000
29.999862 22.224605 -0.249993
-15.693528 27.054774 -0.250000
29.999911 26.688276 0.249983
-12.005466 11.899272 0.250000
29.999898 0.326723 0.249985
-29.999869 13.040563 -0.249989
-3.119350 -4.288774 0.250000
-12.984921 5.385718 -0.250000
-29.999888 -12.422942 -0.249990
29.999911 2.143160 -0.249993
-29.999921 -1.164089 0.249986
-10.257878 -15.460817 -0.250000
-17.870941 -24.058602 0.250000
-18.295962 -37.499883 -0.249992
-29.999904 -18.991999 0.249980
-17.621402 37.499913 -0.250000
-29.999920 -37.499928 -0.249973
-29.999839 -37.499937 0.249960
-19.672127 -37.499848 0.249996
20.000004 -12.531999 -0.250000
-4.825174 -37.499890 -0.249969
-4.462025 -32.376470 -0.249998
-4.462301 -32.377588 0.250000
-2.166901 -25.968200 0.250000
1.772969 -20.415265 0.250000
-2.166446 -25.967356 -0.250000
1.772969 -20.415265 -0.250000
13.316498 -13.434023 0.250000
13.315934 -13.434171 -0.250000
7.064275 -16.131698 -0.250000
7.064243 -16.131708 0.250000
-4.825178 -37.499936 0.249955
3 31 28 33
3 32 31 33
3 10 30 7
3 6 8 30
3 11 9 8
3 6 30 10
3 11 8 6
3 5 9 11
3 31 32 29
3 32 33 29
3 28 31 23
3 23 31 29
3 33 27 29
3 26 36 28
3 28 23 26
3 27 38 21
3 29 27 25
3 25 27 21
3 44 26 12
3 23 29 25
3 26 23 22
3 26 22 12
3 3 24 19
3 25 21 18
3 23 25 20
3 22 23 20
3 21 19 14
3 24 12 15
3 18 21 14
3 13 25 18
3 20 25 13
3 14 19 17
3 19 24 15
3 19 15 17
3 22 20 16
3 12 22 16
3 20 13 7
3 20 7 16
3 18 14 11
3 17 15 9
3 6 13 18
3 13 10 7
3 15 12 8
3 12 16 8
3 30 16 7
3 18 11 6
3 11 14 17
3 5 17 9
3 13 6 10
3 9 15 8
3 11 17 5
3 8 16 30
3 1 3 19
3 24 2 4
3 35 28 36
3 19 42 0
3 45 42 21
3 44 12 43
3 21 42 19
3 33 28 35
3 33 35 46
3 44 43 42
3 44 42 45
3 41 44 39
3 40 41 39
3 40 39 38
3 36 40 38
3 36 38 37
3 45 39 44
3 38 39 21
3 45 21 39
3 26 40 36
3 26 44 41
3 40 26 41
3 37 35 36
3 35 37 46
3 33 46 37
3 37 38 27
3 37 27 33
3 0 42 34
3 43 34 42
3 1 19 0
3 43 12 34
3 34 12 24
3 34 24 4
3 0 34 4
3 1 0 4
3 3 1 4
3 3 4 2
3 24 3 2
