ply
format ascii 1.0
comment Exported by RapidForm
element vertex 625
property float x
property float y
property float z
element face 1246
property list uchar int vertex_index
end_header
-0.275060 -47.920234 -9.030693
-1.234153 -52.836788 -9.846782
-5.655083 -50.685592 -11.199713
18.093600 38.487979 -0.240906
18.359955 38.440272 -2.620357
16.324104 40.242133 -11.461058
-14.256582 37.634009 -0.301749
3.198051 4.814801 -12.464640
-1.831946 -9.703903 -13.961529
0.605361 -5.295913 -13.114009
-3.926706 -8.010375 -15.182150
-10.231447 -7.299484 -14.500865
-7.047867 -0.324028 -14.296851
-1.306249 -3.133313 -14.591789
5.942548 -10.904067 -15.283646
9.646692 -8.038526 -15.338581
2.732090 -7.835408 -14.662137
4.444329 -1.866471 -14.967716
14.176692 0.698333 -12.554737
3.739468 -16.229173 0.820217
1.213071 -14.809082 -3.099736
3.540606 -19.208824 1.594059
0.982237 -20.622202 -2.472141
0.875363 -16.835497 -6.805638
-14.493699 38.346138 -10.715944
-9.480304 -96.798873 6.160830
-9.502981 -97.888668 8.951932
5.788272 -98.012196 -14.738439
-2.316229 -97.789683 -12.216625
4.043892 -81.446320 -10.029979
26.363715 -27.507370 -14.786987
23.340685 -27.256076 -10.338067
24.279605 -28.199597 -12.911841
-20.997138 -26.891590 -7.774902
-20.565834 -25.405309 -14.622406
-22.747943 -24.380246 -16.957267
-19.910119 -25.985929 -10.576299
-6.638137 -6.431688 4.462928
-1.851700 -81.409585 -9.386759
-23.628877 -19.474530 -7.889700
-7.340903 -60.233219 -14.959963
-3.313659 -58.258837 -13.501962
25.708391 -6.022673 -12.964643
21.391545 -8.304475 -9.370381
23.331600 -27.917349 -11.617686
22.972890 -7.909758 -7.055415
19.539827 -12.817509 -6.825904
19.845440 -12.787967 -8.937554
22.869926 -14.862831 -5.422736
21.362541 -16.015196 -7.878711
26.469622 -10.438025 -14.636146
21.944401 -20.198076 -7.108724
21.593849 -21.722548 -5.315202
27.251728 -16.780380 -6.363681
19.753614 -21.899529 -6.060104
24.747875 -12.313699 -15.273858
25.481836 -18.967907 -6.308636
20.082614 -17.981721 -5.735182
28.537864 -16.667197 -8.809840
24.356893 -17.062036 -6.441455
24.831965 -15.871517 -10.424855
26.218074 -19.418968 -8.798872
24.041646 -17.449712 -7.945567
27.559130 -19.742041 -11.323779
28.034136 -15.628978 -13.805144
25.291596 -19.748793 -9.982520
28.732831 -16.199789 -11.516133
27.533199 -21.974699 -9.882580
25.634594 -18.085710 -12.968760
23.898646 -18.996096 -8.933293
25.868971 -20.034015 -11.466237
27.305427 -16.681064 -15.491911
20.917378 -14.358128 -4.978745
22.769929 -27.282766 -8.582514
24.252808 -27.961571 -10.887128
23.484243 -6.477411 -13.043824
23.897074 -27.331546 -9.224759
26.285362 -18.536885 -15.081892
24.586960 -11.113697 -6.320767
28.456551 -23.824527 -15.565715
28.566324 -22.302668 -13.279252
22.755325 -10.449000 -12.441736
27.003360 -19.562144 -14.454589
28.005712 -24.266019 -16.816299
28.767892 -19.559284 -15.241443
26.226695 -23.106377 -12.765996
25.645333 -27.379058 -13.285660
27.399598 -24.083958 -15.428869
25.301969 -27.108453 -14.571130
27.577252 -19.356218 -13.787891
26.533532 -7.253043 -8.443002
-20.616572 -25.891050 -13.285622
-19.623220 -25.380670 -12.009130
-22.620846 -24.139222 -15.818062
-19.792749 -26.617032 -12.427529
-21.478502 -26.020398 -14.603488
-23.730250 -22.382304 -12.274150
-22.872493 -22.555569 -16.531159
-24.169156 -23.600395 -7.480014
-21.238441 -25.831188 -6.159962
-24.759167 -20.537896 -16.758949
-20.477224 -26.011513 -8.339265
-25.413057 -21.045332 -15.384689
-22.733505 -22.156036 -9.815843
-24.347254 -20.832275 -11.052313
-24.695862 -21.893434 -14.017470
-26.236479 -22.263442 -12.771692
-24.027279 -19.709416 -14.132498
-24.508018 -17.386472 -15.689080
-22.159260 -22.966258 -7.342211
-23.860329 -22.648884 -8.830695
-25.550380 -19.768842 -10.894869
-25.173661 -23.098598 -10.087345
-25.430203 -18.436788 -13.413239
-23.327643 -19.218275 -9.374142
-21.929135 -20.810121 -3.177379
-21.648943 -19.658317 -5.187441
-23.811625 -19.555756 -4.126195
-24.513841 -21.417051 -5.466143
-25.077933 -19.528258 -8.183360
-24.063849 -20.184542 -12.824446
-26.675165 -18.036820 -9.242835
-22.637533 -15.353754 -13.333672
-22.923971 -17.165940 -7.406161
-20.379340 -17.289113 -3.809214
-23.517680 -17.845190 -5.521486
-21.113169 -16.055546 -6.778194
-21.739425 -17.515937 -2.693130
-26.120508 -15.937325 -13.436732
-22.093181 -14.020425 -3.791030
-20.998338 -16.888308 -5.350194
-22.364455 -16.066390 -5.385430
-22.792439 -11.284414 -15.187236
-26.327900 -16.094118 -5.919423
-26.791155 -15.772532 -10.481312
-18.400166 -13.824359 -6.468250
-23.825477 -14.251993 -4.502970
-19.936621 -9.825758 -12.720738
-19.159006 -12.305974 -4.889193
-21.545864 -4.956857 -13.159073
-18.420630 -10.571295 -7.327174
-22.344920 -8.286545 -7.025660
-24.651154 -6.919910 -12.726305
-20.343115 -7.483113 -7.470192
-24.548744 -8.139970 -8.762463
-19.492165 -8.052807 -9.845423
-24.972014 -1.252346 -9.931146
-19.664397 -3.275222 -11.030284
1.044042 63.368127 11.876112
-14.586933 31.343258 -7.298623
2.388480 -11.188653 5.184682
5.793602 -13.440913 3.520561
17.560319 33.123905 -7.228427
-0.482937 -30.319066 -1.817176
-6.015135 67.209929 -4.726794
3.588929 77.851542 -1.219158
-0.759169 77.623041 -2.010380
1.064322 77.382809 -5.928756
-0.186956 76.400529 4.931155
-0.455200 75.059835 -9.191298
6.012249 75.668115 -6.472281
3.235837 76.507389 4.301797
-4.256548 75.029300 -6.122318
-3.404951 75.729860 1.578481
-2.790467 72.429183 -10.036071
-6.532545 72.248479 -1.804961
5.669822 73.974369 -9.633000
-0.290160 72.903878 8.130815
-3.253732 73.613674 6.143939
-5.697390 67.522164 1.502049
2.564586 68.553181 -12.635266
-5.692488 70.795673 -6.362692
8.560900 72.878904 -5.306537
8.499305 73.207971 1.237826
-0.466744 66.638212 -11.846128
9.910692 68.469519 -4.549448
-7.030974 66.140768 -5.543991
6.727121 68.643916 -10.596827
10.510857 65.380740 -5.989144
9.263525 63.691154 -4.393621
-0.015250 64.276747 8.807268
3.747561 64.294162 11.924011
-5.340005 62.947710 -4.094135
10.400171 62.626829 -1.780264
8.288896 65.699161 6.094882
1.420791 62.418129 10.418542
3.969066 62.880642 9.636221
3.210087 63.034311 11.860041
2.503256 65.938798 11.386696
-5.781623 64.341605 -2.458326
-4.171330 62.275312 5.509490
-2.810907 66.089968 -10.135885
-5.666695 61.353157 -1.027618
-6.633314 62.807596 -2.551703
4.014746 58.111073 -8.833779
-2.925282 60.161652 -5.941170
6.722682 60.151892 -6.760388
8.591885 58.903439 3.964714
-0.165431 59.550210 -8.697303
0.941227 56.440108 8.385356
6.870752 56.890792 -6.857562
8.864301 57.577939 -0.206575
4.720594 56.191040 8.435103
-3.579562 56.820560 0.809605
-0.084533 55.288878 -8.522730
-2.582788 53.490683 -8.573098
-2.711279 56.066148 -6.382681
5.786840 53.960282 -9.134349
8.655532 55.375035 -4.070644
-3.844675 53.525318 -3.948775
-5.005817 53.017190 -6.217684
1.350320 54.246012 4.057901
-10.855772 50.316025 -9.371046
9.653022 52.721440 -8.064277
-3.792525 56.016654 -3.004580
4.128517 51.410795 -11.596695
10.506625 52.318430 -4.175917
13.582033 51.525926 -10.253873
0.605506 51.414476 -10.762776
19.533731 51.848524 -3.229092
-13.043537 51.883019 -3.102107
14.821162 51.272581 -1.552521
4.693612 54.384134 3.791766
1.570519 51.827381 2.808088
-6.888635 51.875335 -4.473049
-3.437590 47.290817 -13.591414
21.109288 49.827336 -6.523827
4.922022 49.239071 1.774886
8.783764 51.648954 -1.289845
-7.979987 49.311465 -0.192849
-2.356736 50.848179 0.763688
21.562679 48.674688 0.619736
-18.821152 48.612192 -0.746510
18.508117 49.588661 0.558624
-1.369697 48.175617 2.041573
-17.694220 47.527048 1.568299
17.238551 46.928994 -10.912772
-18.122041 49.614221 -4.186206
23.301355 46.830086 -2.080842
-0.520588 42.299939 4.886590
-18.790826 43.123820 -12.059080
11.513231 49.284082 0.220780
8.213323 48.760890 -12.987373
22.085031 42.650008 -12.196667
-16.779029 38.717773 -0.606692
-10.738078 44.766569 2.020592
6.185565 43.629686 3.980995
-9.692773 39.994458 -15.114768
17.303048 39.955938 -12.041907
-22.082511 41.203313 -9.851690
20.150532 37.650890 -0.688949
18.054090 39.978582 2.393501
15.760780 44.550671 2.109036
-9.187534 39.599249 5.430469
15.366419 42.424359 -13.636222
-15.343066 37.732625 -11.505184
-20.667290 38.406760 -3.561645
-14.444816 42.467706 1.685361
22.676115 49.202565 -4.499593
10.650554 37.805394 6.736809
13.535764 41.509881 5.175730
18.752154 32.289923 -3.700980
-12.263152 35.911637 3.848561
-21.500363 39.303800 -11.928714
25.585082 38.391244 -9.648725
-15.512783 34.290728 -3.326875
5.588540 41.079093 -15.158847
1.780093 40.844599 -13.286008
18.853880 40.304426 -12.587127
7.357079 31.788819 -15.141873
-19.355159 35.495641 -13.659517
-14.136416 41.836220 -13.535197
-5.812446 39.984448 6.229860
2.449110 36.156978 6.050676
0.154527 34.038405 -13.890499
18.436754 34.220123 -11.245538
-14.352353 27.106013 -4.916276
-2.966028 36.987393 -15.297608
15.360041 33.057527 5.956178
25.032302 34.368724 -11.745993
25.619676 23.156871 -8.655345
-17.169331 29.371224 -3.160026
21.485800 42.435870 -0.208049
11.904909 33.780839 8.137153
-4.573746 32.167870 9.007956
-21.749022 42.803404 -5.564782
22.014003 26.666725 -3.544017
13.182525 27.117245 6.661346
-9.769305 32.984897 7.565387
-23.335687 31.300084 -7.791334
13.418496 34.534001 -13.762349
17.579881 28.920073 -4.371600
16.069083 27.213936 2.212013
23.444608 33.769305 -12.596236
-23.000451 29.283787 -12.133300
-13.490950 21.423268 -0.684657
9.870588 27.591532 8.552212
3.693117 31.304447 8.433914
1.270316 21.691720 -12.623042
-22.097023 23.696966 -6.577479
2.512078 24.017901 9.130322
-15.777763 28.714030 -10.792748
10.748742 20.264786 10.263788
-19.609554 23.559953 -13.754626
-5.193837 17.382341 -12.348908
23.953136 21.016019 -5.693147
-12.142963 22.306675 -8.944033
22.962007 20.226459 -12.236680
-22.539301 23.237543 -10.010246
-15.688419 14.791629 -7.785652
-2.719913 22.769424 10.566884
-12.370228 17.000499 -6.583679
11.275438 16.701182 -11.860607
-15.037212 18.484436 -11.771378
-21.339146 20.513504 -12.827082
-8.720664 17.822553 -11.260946
17.015278 19.423961 -11.676021
15.170878 16.869180 -7.466135
16.521227 15.595841 -0.655525
-5.265653 19.380805 10.294591
2.405912 13.112633 -11.992064
26.618365 16.981159 -8.568555
-20.509302 20.479551 -5.312687
13.574057 16.765525 5.733386
-22.076098 15.357051 -5.377500
-23.685827 18.079377 -7.612224
-13.567707 14.845563 -1.767535
-3.956887 12.546754 7.805557
-23.809880 12.474996 -11.667041
25.642533 13.634074 -5.802207
17.156230 11.858970 -5.720373
2.265506 15.896141 8.797350
-18.222751 14.816969 -13.961012
19.595264 10.309032 -12.665042
-23.241018 8.932261 -13.324298
-23.764572 11.389665 -7.201926
8.411643 13.293258 7.909161
-20.274873 4.587338 -6.822413
-9.139139 15.412913 6.443254
17.218594 16.412625 -8.513897
-14.088239 9.203446 -8.876132
18.566081 8.249653 -11.509392
16.872493 5.913864 -1.875164
-12.603524 9.446811 1.790219
-0.141308 5.204582 -11.803597
19.644388 9.551129 -7.540555
12.888238 7.681510 3.790229
0.855775 8.722109 7.441535
-3.208257 6.310652 -12.197728
-15.677267 8.249099 -4.377497
15.802156 10.684122 -9.749949
-8.203624 4.430208 4.999302
3.979555 6.276945 7.385462
9.916267 0.108070 4.332707
12.583202 5.292119 -12.136298
-11.593104 6.051069 -11.681876
17.270507 4.137203 -7.948289
-15.595656 2.872851 -1.313326
-12.163159 1.448898 4.472054
-15.363566 3.859112 -7.595144
22.769365 15.652506 -13.382963
19.171187 -1.756191 -4.295838
-17.216945 -6.481455 -1.179408
-23.225483 3.918917 -7.215708
27.115424 -3.465443 -10.964239
0.099124 -1.302928 5.498732
16.837248 -0.711422 1.347331
-1.974004 6.692712 7.549577
-21.024653 6.217942 -14.489954
-14.936634 14.803585 -10.208090
-19.688372 -0.164152 -8.379016
25.093992 1.042147 -7.234584
20.875682 -1.593707 -10.770334
22.393069 -2.192389 -7.431903
18.959638 6.204434 -9.618020
-24.966014 9.037001 -10.508930
-16.520465 -5.438354 -10.684880
26.269898 7.968129 -12.362087
-19.303290 1.270467 -13.509675
-14.209255 1.638992 2.773573
19.282691 17.133385 -6.018139
-0.252081 -10.309389 4.474175
17.934299 -5.582814 -10.923269
-17.666243 -3.612319 -6.373083
9.128744 -10.566596 4.141263
15.030769 -12.281155 2.967361
-1.737226 -12.757684 2.896887
19.438259 -7.203433 -8.102506
-3.696641 -15.406325 4.055636
17.856704 -12.060219 0.412996
-11.357044 -7.680320 4.406635
-0.964756 -16.570108 1.515012
0.118184 -14.271631 5.847139
-14.566192 -12.593720 -11.848142
19.756512 -10.686889 -3.941992
-17.245711 -15.634615 -3.372952
3.954768 -15.211075 3.291204
8.468970 -20.807704 3.716982
0.995378 -18.640519 5.629322
8.042528 -15.818777 -13.172181
3.564884 -34.513681 -9.589551
3.198025 -14.653813 -11.506318
3.534436 -19.073480 5.152968
2.129796 -22.566733 0.482190
0.465027 -23.005236 0.241339
-2.184961 -13.589201 -11.411693
-11.251866 -19.679355 4.993173
13.075264 -19.766801 -12.015189
16.989993 -18.115696 -9.263744
6.832930 -33.442601 -11.660264
-11.578816 -41.462193 -2.856379
-8.613913 -13.984027 -13.387226
-7.269445 -42.178671 -10.265184
-0.100599 -30.621102 -5.130025
-14.529522 -21.967474 1.914521
-17.126902 -13.705572 -7.825969
1.947982 -27.369543 -8.144255
15.765939 -26.965526 1.017598
-2.086469 -31.503800 -9.109721
14.623975 -36.037261 -2.997407
11.673003 -28.479489 3.604341
-4.081463 -33.671020 -10.602227
12.153276 -40.248346 -7.640427
2.397277 -30.773485 -2.133796
-9.197820 -35.211998 2.529802
9.430017 -45.389870 -9.650914
1.874626 -35.463099 -5.658563
-6.779754 -29.805547 3.845863
2.936945 -46.228515 -9.059147
4.800971 -43.043925 1.590884
7.817598 -39.416285 2.453001
10.396979 -40.556698 1.639936
7.406636 -42.805302 -10.415648
-9.380772 -43.401556 0.530307
0.768019 -48.507740 -6.989427
-2.727812 -35.764150 1.245035
-5.727269 -41.644870 2.667139
12.922991 -43.482938 -3.914104
-4.709835 -47.588847 2.861418
7.318774 -46.299957 2.942713
-7.379968 -48.510813 2.408780
-10.726850 -40.987078 -7.029992
10.274505 -48.107355 1.303993
-2.487209 -45.722955 1.658491
6.591218 -50.042472 -11.183046
-3.360399 -50.879788 1.147232
8.380722 -50.157396 1.740121
1.918347 -56.386452 -8.219500
6.413311 -55.075291 -1.928978
12.930587 -50.261665 -7.358342
1.200526 -48.718681 -3.685477
5.137091 -50.962153 0.569603
0.794184 -49.291750 -5.262339
-0.781718 -56.385451 -6.378756
-11.360459 -53.114890 -6.691896
-2.615123 -53.147219 -2.183012
-9.862405 -55.065783 -3.429595
11.472565 -53.956871 -3.199935
-8.146468 -54.816534 -1.605517
-9.997946 -58.551724 -13.561188
-4.881968 -54.470420 -1.191317
9.568081 -61.096628 -14.508691
-13.079268 -62.867234 -10.072615
-10.577129 -49.788009 -8.559366
9.657793 -55.563113 -1.831978
3.763511 -55.899443 -11.755342
0.676295 -67.557590 -9.507827
1.687060 -64.747430 -11.837566
-1.459306 -61.283123 -5.507451
-8.775499 -62.493331 -3.003113
-8.655870 -66.745765 -14.992345
3.548791 -58.482870 -5.266938
-12.272967 -63.224005 -6.527674
6.231339 -61.882254 -14.809799
-11.722238 -66.492870 -12.407654
12.176422 -59.962985 -12.430262
1.291740 -66.994682 -9.638719
7.462763 -62.696064 -3.802526
14.085319 -64.329449 -10.302541
-0.789870 -64.440670 -12.444545
4.459170 -66.944726 -14.613849
13.952548 -63.710225 -7.637589
-5.152024 -68.108325 -15.342217
10.631231 -70.156095 -13.666307
5.583276 -78.287894 -12.701803
7.127711 -68.182788 -15.204778
2.502701 -68.441056 -6.537816
11.746649 -67.211387 -4.976876
-1.037710 -69.864443 -6.260475
-3.326770 -80.570402 -6.797926
-8.818795 -72.685119 -4.952908
6.781046 69.465268 7.970440
4.732250 66.133831 5.984289
3.895987 67.504951 7.567433
5.146074 68.991984 6.506956
6.768846 67.680480 7.128682
6.180567 66.258344 6.956135
5.555105 68.093524 5.121772
0.412511 67.371531 7.685111
4.258910 64.984173 8.982648
-5.754752 72.080012 3.008576
4.877166 73.609330 7.228340
3.239801 70.034750 9.463235
1.865087 68.115807 9.143409
-2.299502 69.696193 8.834149
-1.555228 68.083173 7.843625
-3.243460 67.350300 6.907554
-1.401120 67.546758 5.192135
-0.504676 68.758939 6.945456
-1.175364 66.115510 7.606179
0.246007 67.074339 5.958089
8.367895 -76.426665 -5.410518
5.463892 -86.097513 -12.158993
6.374400 -86.431605 -4.589819
9.022582 -84.214559 -5.859174
-8.041801 -85.042041 -9.525085
-7.011286 -84.423404 -11.601753
-3.232334 -78.429764 -12.522751
5.259472 -80.191920 -7.028737
-13.890971 -97.836576 3.181438
-13.596992 -97.942628 6.073177
-14.158465 -95.936568 6.225415
-11.687469 -98.083633 7.739583
-9.214772 -96.244490 9.908485
-6.379542 -97.782431 10.438466
-11.641528 -95.906200 5.623482
-14.386393 -97.112310 5.160495
-7.689762 -84.641786 -6.852694
-5.268298 -85.177002 -5.125092
-3.053150 -85.399539 -11.884164
-8.216860 -89.359154 -5.023212
-1.819256 -86.509876 -5.448086
-5.912011 -89.927975 -12.630120
-4.160570 -93.719253 -14.543313
-4.178084 -89.622352 -2.420419
-1.462153 -93.495334 -9.260169
-1.558255 -94.630645 -13.006595
-2.749466 -91.147987 -3.672796
-8.977559 -91.306972 -8.560827
-6.467994 -89.077680 -2.608605
-1.439171 -96.705013 -10.234952
-5.072901 -98.011210 -13.881051
-5.842664 -92.141305 2.521521
-3.341172 -95.760502 -5.722551
-4.140883 -92.794439 2.713479
-2.915117 -94.340319 -2.640958
-10.330399 -93.445920 2.122965
-3.271647 -94.966937 4.930883
-6.268078 -97.976642 -3.224602
-6.296983 -93.736640 6.845708
-3.756937 -97.275015 4.255806
-7.731707 -96.751136 -13.006398
-11.446367 -95.953017 -4.777722
-4.971315 -96.032261 9.324796
-6.736246 -95.146023 11.980564
-5.413760 -97.938861 6.261695
-8.872084 -95.097121 10.238877
-7.775884 -97.973006 9.734975
-7.772372 -96.845162 7.065590
-10.157689 -97.331413 5.090417
-11.588661 -94.120081 -0.914049
-12.904228 -95.998500 3.622714
-15.417859 -96.072407 3.988767
-11.629400 -97.430733 4.081541
-7.604344 -94.741760 6.816604
-9.313086 -94.091602 5.638760
-10.482111 -96.013580 9.111133
-10.985068 -96.592646 8.507743
-12.238972 -96.168356 8.264789
18.626775 -97.778220 4.269900
17.504119 -97.987987 4.937904
18.390197 -96.725778 4.985920
16.888119 -97.562642 5.705637
16.212282 -96.703572 8.279762
15.304290 -97.919037 7.271614
14.336822 -98.029980 7.792583
15.119577 -95.901051 8.619211
13.775209 -97.835546 8.185133
14.363561 -96.262892 9.594325
12.482699 -96.103747 9.087175
9.937887 -97.706869 6.423984
9.134045 -97.314841 7.372828
11.455746 -98.019401 9.321543
10.233697 -97.971329 9.961292
11.306172 -94.995658 6.936670
14.745556 -96.471347 5.280092
14.845194 -94.692994 4.635813
10.342869 -84.310852 -8.375235
9.106429 -81.923025 -11.858819
9.570136 -86.276258 -11.150129
3.476492 -87.336878 -6.899584
4.004996 -89.490969 -11.950394
8.801120 -88.100428 -4.609300
5.644504 -90.179084 -2.824024
10.271335 -91.845352 -10.494390
6.237842 -90.004553 -12.997803
3.455385 -95.143386 -13.178077
5.005759 -93.478960 -14.793674
10.576906 -89.468601 -6.246782
7.579024 -90.047282 -1.291388
3.170668 -92.836693 -9.379714
3.941962 -98.037155 -12.066005
8.725567 -94.951484 -14.435721
5.351357 -94.783890 -4.857691
5.479029 -93.522491 -1.724197
11.000600 -91.634822 -0.399056
9.407977 -97.995483 -3.245599
7.035461 -92.972714 2.680792
12.849528 -92.650879 -3.701676
7.575852 -94.927722 6.981296
9.154558 -93.102381 5.082410
7.990938 -97.846768 5.441131
9.727592 -95.017271 10.607747
9.458608 -97.449412 -12.842685
11.926014 -95.181277 11.163577
12.986730 -96.658128 6.050077
17.670924 -96.220718 1.706603
15.270684 -97.089223 4.012737
15.912927 -97.966537 2.103251
15.689258 -94.927838 2.622833
17.593938 -96.350631 6.788231
16.113616 -97.895674 6.876449
13.073167 -95.079814 9.303714
13.199528 -94.336299 6.185772
12.340602 -97.644141 8.970078
3 622 624 578
3 622 578 623
3 623 584 622
3 620 617 619
3 586 621 620
3 621 586 585
3 619 586 620
3 615 618 585
3 617 585 618
3 608 619 616
3 618 615 580
3 583 614 612
3 583 612 609
3 586 619 605
3 584 614 579
3 602 594 616
3 583 609 581
3 610 614 584
3 612 614 610
3 609 611 581
3 594 608 616
3 605 623 586
3 602 616 613
3 603 606 611
3 609 604 611
3 609 612 607
3 612 610 607
3 599 623 605
3 601 606 603
3 603 611 604
3 604 609 607
3 27 602 613
3 593 604 607
3 623 599 610
3 598 608 594
3 593 607 599
3 610 599 607
3 601 603 600
3 602 27 597
3 601 596 27
3 27 596 597
3 608 598 605
3 600 596 601
3 592 605 598
3 602 595 594
3 604 600 603
3 605 592 599
3 597 595 602
3 594 589 598
3 604 593 590
3 599 592 513
3 600 591 596
3 589 594 595
3 600 604 590
3 513 593 599
3 518 593 513
3 591 595 597
3 596 591 597
3 590 591 600
3 598 589 587
3 518 590 593
3 592 598 587
3 595 591 512
3 589 595 588
3 512 588 595
3 513 592 514
3 592 587 514
3 619 608 605
3 591 590 29
3 576 573 586
3 576 586 623
3 584 580 615
3 623 610 584
3 619 617 618
3 582 614 583
3 579 614 582
3 583 581 582
3 580 582 581
3 584 579 580
3 582 580 579
3 578 577 623
3 578 624 577
3 615 623 577
3 624 622 584
3 623 575 576
3 575 574 573
3 576 575 573
3 623 615 575
3 620 621 572
3 585 617 621
3 570 571 619
3 569 616 571
3 619 571 616
3 571 570 569
3 570 618 616
3 570 616 569
3 619 618 570
3 565 568 567
3 565 566 523
3 523 564 565
3 25 566 565
3 561 562 526
3 562 552 519
3 519 561 526
3 563 559 525
3 560 552 562
3 562 561 560
3 559 563 558
3 554 556 557
3 25 559 558
3 558 557 556
3 557 524 554
3 558 555 557
3 560 561 546
3 549 556 554
3 564 558 556
3 553 555 550
3 549 564 556
3 551 541 519
3 551 519 552
3 555 548 550
3 550 547 553
3 549 554 544
3 565 564 549
3 553 547 554
3 565 549 542
3 550 548 545
3 546 565 542
3 554 547 544
3 548 543 545
3 550 545 547
3 549 544 542
3 547 545 544
3 552 538 551
3 543 548 540
3 546 530 560
3 546 542 539
3 551 538 532
3 551 533 541
3 545 543 535
3 552 530 538
3 539 530 546
3 533 551 532
3 535 543 540
3 542 544 534
3 542 534 539
3 28 541 536
3 536 540 28
3 544 537 534
3 535 537 545
3 541 533 536
3 536 535 540
3 532 538 516
3 531 534 537
3 536 529 535
3 516 538 515
3 530 527 538
3 533 529 536
3 537 535 531
3 532 529 533
3 527 530 539
3 527 539 528
3 531 489 534
3 528 534 489
3 515 538 527
3 529 38 535
3 531 535 38
3 530 552 560
3 537 544 545
3 539 534 528
3 521 525 546
3 563 561 519
3 525 568 565
3 565 546 525
3 554 524 553
3 524 557 555
3 553 524 555
3 523 26 558
3 523 558 564
3 26 566 25
3 523 566 26
3 565 567 25
3 568 522 567
3 522 568 525
3 25 567 522
3 561 521 546
3 520 521 561
3 521 520 525
3 519 526 562
3 481 514 587
3 489 490 528
3 514 511 513
3 511 518 513
3 29 484 512
3 487 511 514
3 589 588 587
3 509 510 507
3 506 507 508
3 506 509 507
3 498 508 510
3 498 504 505
3 505 508 498
3 508 505 506
3 510 508 507
3 510 509 498
3 188 503 148
3 498 148 503
3 504 503 502
3 491 502 503
3 167 504 502
3 167 502 501
3 491 501 502
3 506 504 500
3 493 503 188
3 180 498 506
3 505 504 506
3 498 509 506
3 495 496 184
3 493 492 497
3 494 493 497
3 495 494 497
3 493 494 495
3 495 497 496
3 492 496 497
3 493 496 492
3 503 504 498
3 29 518 486
3 529 466 38
3 518 511 486
3 529 517 466
3 485 484 480
3 29 467 484
3 480 484 467
3 464 511 487
3 462 515 527
3 29 476 467
3 588 483 478
3 474 470 516
3 482 516 470
3 517 479 466
3 477 486 511
3 38 466 488
3 517 482 479
3 472 462 527
3 29 486 476
3 481 587 478
3 40 482 470
3 477 511 464
3 483 475 478
3 461 483 485
3 462 474 515
3 461 475 483
3 485 480 473
3 486 447 476
3 482 41 479
3 486 477 471
3 488 466 468
3 469 472 490
3 471 447 486
3 447 467 476
3 474 462 459
3 474 459 470
3 465 473 480
3 473 461 485
3 462 454 463
3 472 454 462
3 479 1 466
3 449 478 475
3 467 465 480
3 457 487 481
3 41 1 479
3 453 460 468
3 466 1 453
3 470 459 40
3 456 469 458
3 449 481 478
3 2 1 41
3 448 477 464
3 464 487 457
3 455 460 453
3 453 452 455
3 456 458 440
3 465 428 444
3 446 448 464
3 451 471 448
3 451 450 471
3 0 452 1
3 461 425 475
3 458 460 440
3 440 460 445
3 451 448 446
3 447 471 450
3 442 446 464
3 464 457 442
3 455 445 460
3 447 434 428
3 475 425 449
3 425 461 444
3 410 463 454
3 446 439 451
3 439 429 451
3 410 441 463
3 445 438 440
3 442 439 446
3 445 443 438
3 437 449 422
3 438 443 436
3 440 438 436
3 440 436 433
3 436 443 435
3 439 430 429
3 431 439 442
3 424 433 436
3 430 439 431
3 425 444 432
3 428 432 444
3 433 414 410
3 427 436 435
3 450 429 423
3 422 419 437
3 450 426 434
3 0 413 452
3 0 418 413
3 420 397 430
3 429 430 397
3 420 430 431
3 426 400 434
3 427 424 436
3 425 432 409
3 423 426 450
3 452 413 153
3 414 433 424
3 408 422 425
3 400 409 428
3 420 431 417
3 431 419 417
3 415 441 410
3 424 406 414
3 427 435 388
3 443 153 435
3 412 411 421
3 423 416 426
3 407 408 425
3 412 441 393
3 405 418 421
3 410 414 395
3 409 407 425
3 388 406 427
3 385 420 417
3 408 394 419
3 405 421 411
3 404 403 402
3 429 19 423
3 398 391 404
3 398 404 402
3 413 418 23
3 405 23 418
3 415 393 441
3 416 401 400
3 409 400 401
3 399 15 407
3 409 401 399
3 21 402 403
3 435 391 388
3 402 21 396
3 398 402 150
3 384 397 420
3 429 397 19
3 37 406 388
3 385 353 420
3 398 150 392
3 353 384 420
3 385 417 389
3 408 407 382
3 417 394 389
3 396 150 402
3 387 394 408
3 386 391 398
3 392 386 398
3 381 386 392
3 381 392 150
3 150 151 384
3 383 415 395
3 382 387 408
3 37 381 150
3 381 37 386
3 385 389 366
3 414 406 379
3 353 385 366
3 361 366 394
3 387 361 394
3 395 362 383
3 415 383 376
3 75 372 341
3 150 365 37
3 353 150 384
3 365 150 353
3 362 414 379
3 345 374 373
3 374 372 373
3 390 379 406
3 371 329 373
3 380 373 329
3 146 363 335
3 365 351 37
3 351 390 37
3 356 387 382
3 383 359 376
3 359 355 376
3 367 351 365
3 351 358 390
3 358 379 390
3 387 356 361
3 357 362 379
3 356 342 361
3 335 375 146
3 341 372 374
3 334 142 375
3 75 341 333
3 357 359 383
3 354 356 382
3 355 359 340
3 367 365 352
3 365 353 352
3 350 356 354
3 343 358 351
3 343 379 358
3 326 379 343
3 355 340 315
3 332 378 368
3 342 356 330
3 359 349 340
3 369 370 147
3 312 354 320
3 352 353 336
3 345 373 380
3 367 352 347
3 367 327 351
3 330 318 342
3 341 374 345
3 360 75 333
3 354 312 350
3 351 338 343
3 309 337 370
3 356 350 330
3 369 378 332
3 327 338 351
3 309 370 369
3 341 339 316
3 331 347 336
3 329 364 321
3 311 340 349
3 321 364 377
3 375 328 334
3 354 7 320
3 334 332 368
3 331 327 347
3 347 327 367
3 337 324 363
3 363 324 335
3 325 335 324
3 369 332 313
3 323 336 346
3 346 342 323
3 322 324 337
3 322 337 309
3 334 314 332
3 353 346 336
3 343 288 295
3 317 318 330
3 7 344 320
3 349 326 311
3 330 350 317
3 339 345 380
3 321 377 280
3 341 316 333
3 315 348 355
3 348 304 344
3 319 327 331
3 327 319 338
3 343 295 326
3 350 312 317
3 304 320 344
3 334 328 314
3 326 306 311
3 311 315 340
3 320 298 312
3 269 312 298
3 305 286 380
3 325 322 299
3 307 280 377
3 319 331 310
3 336 302 331
3 326 295 306
3 291 318 317
3 308 325 299
3 325 308 314
3 320 304 298
3 323 302 336
3 331 300 310
3 303 332 314
3 303 313 332
3 331 302 300
3 319 288 338
3 316 339 152
3 281 299 322
3 312 290 317
3 302 297 300
3 287 296 302
3 152 275 316
3 302 296 297
3 302 323 292
3 280 307 279
3 275 293 316
3 303 314 294
3 294 308 299
3 294 299 289
3 314 308 294
3 292 318 291
3 309 369 265
3 295 276 306
3 307 293 279
3 310 297 284
3 300 297 310
3 323 318 292
3 251 292 291
3 310 288 319
3 380 261 339
3 296 283 297
3 286 305 282
3 238 305 280
3 284 288 310
3 283 296 287
3 283 287 278
3 287 292 278
3 244 299 281
3 305 238 282
3 315 247 304
3 269 298 274
3 269 290 312
3 304 277 298
3 262 295 288
3 6 276 295
3 270 303 294
3 247 277 304
3 274 298 277
3 297 272 284
3 253 284 272
3 284 253 288
3 278 292 251
3 256 285 289
3 249 289 285
3 271 247 315
3 297 273 272
3 238 280 264
3 315 306 271
3 249 263 294
3 270 294 263
3 303 270 301
3 259 273 297
3 283 259 297
3 278 259 283
3 269 274 267
3 267 266 269
3 243 264 279
3 243 279 293
3 265 244 281
3 250 286 282
3 239 273 259
3 288 253 262
3 255 270 240
3 275 268 293
3 6 295 262
3 244 265 6
3 250 3 261
3 267 274 277
3 290 269 254
3 272 273 239
3 260 259 278
3 278 251 260
3 240 270 263
3 243 293 268
3 257 262 253
3 266 254 269
3 246 239 259
3 246 259 260
3 282 260 251
3 250 251 3
3 240 271 255
3 24 255 271
3 275 248 268
3 254 5 290
3 225 277 247
3 225 267 277
3 227 239 246
3 245 272 239
3 260 252 246
3 262 257 6
3 257 244 6
3 263 249 240
3 254 243 268
3 248 254 268
3 245 253 272
3 282 252 260
3 250 282 251
3 240 225 271
3 247 271 225
3 243 258 264
3 253 245 257
3 235 285 256
3 237 240 249
3 236 243 254
3 241 246 252
3 235 256 244
3 212 225 240
3 244 257 235
3 257 245 235
3 285 237 249
3 226 258 243
3 234 229 239
3 246 241 227
3 267 215 266
3 234 239 227
3 233 241 252
3 231 252 282
3 252 231 233
3 232 235 220
3 235 245 229
3 231 282 238
3 285 232 237
3 217 254 242
3 223 234 227
3 227 241 228
3 231 238 258
3 240 237 212
3 243 236 226
3 219 233 231
3 224 234 230
3 233 221 241
3 224 229 234
3 232 220 237
3 212 237 220
3 217 226 236
3 217 236 254
3 254 266 242
3 222 227 228
3 219 221 233
3 228 241 216
3 231 258 219
3 258 226 219
3 217 219 226
3 266 215 242
3 227 222 223
3 203 209 230
3 220 235 229
3 208 228 216
3 220 229 224
3 221 216 241
3 210 212 220
3 242 215 217
3 225 218 267
3 208 201 228
3 230 209 224
3 219 216 221
3 210 220 224
3 207 213 215
3 215 267 218
3 211 223 222
3 222 228 201
3 203 214 209
3 210 224 209
3 208 216 213
3 207 215 218
3 230 211 203
3 212 210 205
3 207 200 213
3 207 218 204
3 222 202 211
3 211 199 203
3 196 208 200
3 206 210 209
3 206 209 214
3 210 206 205
3 218 205 204
3 208 213 200
3 207 194 200
3 194 204 198
3 194 207 204
3 211 202 199
3 184 202 197
3 199 190 203
3 208 196 183
3 206 214 195
3 202 185 199
3 197 222 201
3 183 201 208
3 206 195 198
3 204 206 198
3 202 222 197
3 192 214 203
3 194 196 200
3 198 174 194
3 194 174 170
3 174 198 191
3 196 194 177
3 199 185 190
3 197 201 183
3 203 190 193
3 193 192 203
3 192 193 182
3 195 182 191
3 195 191 198
3 181 188 148
3 148 187 181
3 186 181 187
3 185 148 180
3 202 186 185
3 186 202 184
3 197 183 184
3 195 192 182
3 183 196 179
3 178 183 179
3 176 193 189
3 499 188 181
3 499 181 186
3 190 185 180
3 506 190 180
3 193 169 189
3 169 176 189
3 176 182 193
3 179 177 175
3 179 175 178
3 182 176 154
3 194 170 177
3 169 165 154
3 164 174 191
3 174 164 170
3 169 500 165
3 170 166 177
3 164 191 171
3 172 175 177
3 491 173 501
3 162 171 165
3 172 177 166
3 168 167 158
3 167 501 158
3 161 158 501
3 161 501 173
3 165 500 163
3 171 162 164
3 159 166 170
3 500 168 163
3 162 165 163
3 173 160 155
3 173 172 160
3 159 164 162
3 166 160 172
3 166 159 157
3 159 170 164
3 168 158 163
3 162 157 159
3 160 166 157
3 155 158 161
3 173 155 161
3 163 158 156
3 163 156 162
3 162 156 157
3 213 217 215
3 213 219 217
3 219 213 216
3 193 190 169
3 169 190 506
3 154 191 182
3 169 154 176
3 160 157 155
3 155 156 158
3 157 156 155
3 306 276 24
3 149 369 313
3 149 265 369
3 313 301 149
3 5 317 290
3 380 286 250
3 292 287 302
3 473 465 444
3 456 410 454
3 434 400 428
3 407 409 399
3 415 410 395
3 415 376 393
3 151 150 396
3 342 366 361
3 349 357 379
3 349 379 326
3 315 311 306
3 280 305 329
3 321 280 329
3 285 235 232
3 467 447 465
3 459 462 463
3 443 445 452
3 256 299 244
3 234 223 230
3 230 223 211
3 205 225 212
3 179 196 177
3 172 173 175
3 336 347 352
3 468 460 469
3 153 443 452
3 0 421 418
3 390 406 37
3 369 147 378
3 375 142 146
3 280 279 264
3 301 255 149
3 499 186 184
3 491 184 173
3 183 173 184
3 506 500 169
3 500 504 168
3 180 148 498
3 499 493 188
3 185 187 148
3 186 187 185
3 378 139 368
3 368 139 142
3 378 147 139
3 140 143 138
3 143 140 145
3 137 139 145
3 141 129 143
3 141 144 133
3 132 139 137
3 137 145 140
3 138 143 129
3 133 136 141
3 141 136 129
3 137 140 135
3 140 138 135
3 144 142 134
3 142 139 132
3 135 138 124
3 131 129 136
3 127 124 138
3 130 135 124
3 126 131 136
3 108 142 132
3 132 137 108
3 136 125 126
3 129 127 138
3 123 137 135
3 126 123 135
3 144 134 133
3 117 129 131
3 123 126 125
3 127 129 117
3 134 142 128
3 108 137 122
3 116 131 130
3 116 130 124
3 123 122 137
3 121 119 133
3 116 124 115
3 133 134 121
3 136 118 125
3 127 115 124
3 128 142 108
3 133 118 136
3 131 116 117
3 123 120 122
3 119 98 133
3 117 115 127
3 109 39 123
3 123 39 114
3 119 121 112
3 106 134 128
3 98 118 133
3 119 114 39
3 119 112 110
3 121 134 111
3 125 118 99
3 123 114 120
3 134 106 111
3 109 123 125
3 104 120 114
3 108 122 107
3 98 119 39
3 113 107 120
3 107 113 102
3 110 114 119
3 96 104 111
3 110 103 114
3 113 120 105
3 128 108 100
3 104 114 103
3 104 96 120
3 128 102 113
3 128 113 106
3 125 99 109
3 128 100 102
3 111 104 112
3 106 113 105
3 110 36 103
3 106 96 111
3 98 39 109
3 97 108 107
3 99 118 98
3 120 34 105
3 34 120 96
3 36 110 112
3 99 101 109
3 92 104 103
3 112 104 94
3 97 100 108
3 92 103 36
3 98 101 33
3 99 98 33
3 106 105 95
3 107 102 93
3 34 96 91
3 93 97 107
3 94 104 92
3 34 95 105
3 96 106 91
3 100 35 102
3 35 93 102
3 142 144 146
3 144 141 363
3 145 147 370
3 363 146 144
3 147 145 139
3 88 89 30
3 30 89 80
3 86 30 80
3 88 85 89
3 86 80 63
3 43 46 45
3 87 82 77
3 87 77 83
3 43 47 46
3 81 47 43
3 84 83 71
3 82 87 79
3 78 53 90
3 77 71 83
3 70 63 32
3 63 67 32
3 61 53 76
3 31 73 69
3 48 78 72
3 89 79 84
3 56 73 53
3 76 53 73
3 89 82 79
3 70 85 63
3 84 71 64
3 69 73 59
3 66 80 89
3 70 68 85
3 61 67 58
3 49 59 48
3 74 67 61
3 65 74 61
3 59 73 56
3 82 89 68
3 64 66 89
3 80 66 63
3 62 59 49
3 65 60 70
3 82 68 77
3 53 78 48
3 66 67 63
3 81 62 49
3 60 62 81
3 70 60 68
3 67 66 58
3 52 48 72
3 52 72 57
3 59 56 48
3 48 56 53
3 61 58 53
3 60 69 62
3 71 50 64
3 58 66 90
3 55 77 81
3 51 54 49
3 52 51 48
3 66 64 364
3 71 55 50
3 48 51 49
3 49 54 57
3 61 31 69
3 59 62 69
3 77 60 81
3 364 64 50
3 53 58 90
3 75 50 55
3 49 57 47
3 42 364 50
3 81 49 47
3 57 46 47
3 46 57 72
3 90 66 364
3 75 42 50
3 78 45 72
3 72 45 46
3 65 70 32
3 44 65 32
3 32 67 74
3 74 65 44
3 85 86 63
3 85 88 86
3 43 372 75
3 372 43 373
3 78 90 45
3 90 371 45
3 371 373 45
3 370 337 143
3 337 141 143
3 364 42 377
3 360 377 42
3 371 90 364
3 481 487 514
3 587 588 478
3 474 516 515
3 334 368 142
3 184 491 495
3 483 588 485
3 484 485 588
3 489 488 469
3 490 489 469
3 472 456 454
3 40 41 482
3 448 471 477
3 1 452 453
3 440 433 456
3 459 2 40
3 437 419 442
3 449 437 442
3 427 406 424
3 401 14 399
3 395 414 362
3 151 397 384
3 362 357 383
3 343 338 288
3 316 360 333
3 323 342 318
3 309 281 322
3 307 316 293
3 289 249 294
3 289 299 256
3 380 250 261
3 270 255 301
3 245 239 229
3 225 205 218
3 154 165 171
3 335 325 328
3 371 364 329
3 167 168 504
3 126 135 130
3 112 121 111
3 98 109 101
3 42 75 360
3 71 77 55
3 77 68 60
3 81 43 75
3 491 493 495
3 489 38 488
3 2 459 463
3 450 451 429
3 410 456 433
3 411 412 393
3 397 151 19
3 386 37 388
3 366 346 353
3 349 359 357
3 315 304 348
3 329 305 380
3 238 264 258
3 206 204 205
3 195 214 192
3 191 154 171
3 339 261 152
3 468 469 488
3 145 370 143
3 131 126 130
3 120 107 122
3 69 65 61
3 65 69 60
3 341 345 339
3 184 493 499
3 184 496 493
3 473 444 461
3 460 458 469
3 447 428 465
3 455 452 445
3 457 449 442
3 314 328 325
3 360 316 307
3 281 309 265
3 449 457 481
3 75 55 81
3 84 64 89
3 482 517 516
3 431 442 419
3 366 342 346
3 527 528 490
3 29 590 518
3 503 493 491
3 490 472 527
3 468 466 453
3 456 472 469
3 41 40 2
3 450 434 447
3 422 449 425
3 408 419 422
3 426 416 400
3 153 413 23
3 322 325 324
3 377 360 307
3 313 303 301
3 394 366 389
3 432 428 409
3 328 375 335
3 337 363 141
3 89 85 68
3 43 45 373
3 417 419 394
3 112 94 36
3 91 106 95
3 100 97 35
3 93 35 97
3 116 115 117
3 95 34 91
3 92 36 94
3 33 101 99
3 51 52 54
3 76 31 61
3 73 31 76
3 32 74 44
3 88 30 86
3 84 79 83
3 79 87 83
3 52 57 54
3 512 591 29
3 484 588 512
3 38 489 531
3 517 532 516
3 529 532 517
3 613 616 618
3 563 519 555
3 558 563 555
3 540 548 28
3 618 27 613
3 519 541 548
3 28 548 541
3 563 520 561
3 520 563 525
3 522 559 25
3 525 559 522
3 558 26 25
3 580 581 611
3 577 624 615
3 615 624 584
3 573 574 585
3 586 573 585
3 620 572 617
3 621 617 572
3 575 585 574
3 585 575 615
3 6 265 149
3 24 271 306
3 6 24 276
3 5 291 317
3 261 3 4
3 4 152 261
3 23 401 416
3 20 23 423
3 423 19 20
3 423 23 416
3 20 391 153
3 435 153 391
3 388 391 386
3 23 20 153
3 22 404 391
3 22 19 21
3 22 403 404
3 19 396 21
3 396 19 151
3 19 391 20
3 391 19 22
3 22 21 403
3 18 354 382
3 17 354 15
3 7 354 17
3 354 18 15
3 15 18 382
3 17 15 14
3 9 17 16
3 16 17 14
3 344 13 348
3 348 13 12
3 12 355 348
3 11 355 12
3 12 13 10
3 12 10 11
3 11 376 355
3 15 382 407
3 14 15 399
3 14 401 16
3 401 9 16
3 9 401 23
3 8 10 13
3 11 393 376
3 13 9 8
3 8 9 405
3 23 405 9
3 393 11 411
3 10 411 11
3 405 411 8
3 8 411 10
3 13 344 9
3 7 17 9
3 344 7 9
3 618 606 601
3 24 149 255
3 24 6 149
3 5 254 248
3 5 248 4
3 4 3 5
3 4 248 152
3 275 152 248
3 27 618 601
3 618 580 611
3 606 618 611
3 555 519 548
3 291 3 251
3 5 3 291
3 412 463 441
3 463 412 2
3 1 2 0
3 412 0 2
3 421 0 412
3 183 178 175
3 175 173 183
