ply
format ascii 1.0
comment Exported by RapidForm
element vertex 467
property float x
property float y
property float z
element face 848
property list uchar int vertex_index
end_header
-1.993397 -73.136339 -9.742850
-1.812736 -73.282147 -9.795559
-1.958904 -73.321309 -9.704445
-1.678121 -73.494922 -9.809491
-1.868693 -73.495966 -9.722480
-2.612189 -72.897985 -9.602842
-2.103706 -73.261755 -9.667785
-2.315688 -73.357750 -9.621698
-2.380712 -72.885595 -9.679428
-2.220597 -73.094433 -9.672534
-2.533488 -73.154633 -9.590226
-1.534643 -73.554696 -9.890279
-1.354337 -73.737745 -9.991207
-1.330336 -73.899782 -9.945514
-1.203090 -73.991079 -10.025737
-1.294453 -74.115244 -9.928012
-1.468768 -73.774010 -9.877292
-2.094352 -73.473135 -9.661273
-1.455415 -74.013633 -9.856581
-1.750918 -73.679164 -9.753582
-1.602993 -73.693046 -9.806518
-1.980483 -73.726528 -9.702745
-2.309931 -73.704334 -9.639877
-2.115583 -74.011382 -9.724686
-1.429399 -74.195274 -9.888721
-1.710657 -73.924252 -9.788246
-1.590665 -74.150816 -9.847062
-2.251008 -74.297559 -9.763476
-2.620832 -73.572044 -9.567672
-2.835799 -72.785448 -9.553924
-3.516536 -72.655865 -9.328877
-2.980673 -73.135397 -9.475935
-2.798505 -73.040953 -9.532030
-2.923364 -73.355193 -9.486477
-3.186895 -72.703975 -9.447715
-2.999509 -72.955667 -9.483802
-3.230329 -73.150789 -9.402615
-3.549435 -72.954623 -9.297191
-3.632198 -73.316573 -9.259926
-3.979837 -73.116088 -9.109759
-4.320676 -73.206037 -8.936339
-4.525875 -73.437181 -8.826333
-3.015940 -73.788198 -9.483740
-3.363638 -73.577240 -9.365311
-3.911705 -73.439143 -9.149250
-3.738537 -73.631246 -9.235721
-2.632454 -74.072116 -9.621716
-3.346737 -73.905111 -9.400225
-3.202500 -74.156066 -9.475236
-3.595782 -73.874472 -9.313607
-3.496456 -74.103945 -9.376472
-3.702905 -74.132861 -9.306128
-3.888049 -73.952613 -9.207392
-4.093298 -73.902779 -9.105979
-4.186521 -73.461844 -9.017276
-4.023442 -73.692944 -9.116090
-4.636498 -73.753165 -8.781090
-4.668999 -74.041481 -8.801690
-4.160808 -74.147017 -9.110249
-4.343990 -73.839036 -8.967702
-4.916931 -74.198966 -8.651265
-4.742399 -74.333658 -8.811723
-3.924837 -74.326381 -9.247982
-1.867992 -74.287686 -9.838754
-1.308451 -74.334000 -9.960107
-1.147818 -74.506220 -10.065403
-1.228165 -74.752949 -10.111253
-1.038482 -74.748841 -10.188941
-1.009789 -75.038702 -10.303710
-1.170349 -74.965752 -10.206882
-1.221661 -75.292095 -10.331074
-1.455607 -74.947443 -10.131630
-1.394470 -74.589778 -10.017406
-1.548623 -74.362852 -9.913711
-1.724867 -74.639191 -9.970461
-2.591228 -74.836763 -9.819493
-2.177586 -74.648921 -9.876953
-2.264900 -75.031399 -9.972109
-1.889716 -75.001844 -10.058035
-1.639840 -75.341183 -10.241036
-2.046924 -75.337444 -10.132839
-1.826192 -75.658392 -10.313562
-1.132947 -75.632489 -10.499107
-1.352415 -76.117921 -10.629387
-1.455608 -75.677045 -10.423258
-1.295636 -75.901980 -10.560567
-1.671942 -76.040527 -10.511184
-1.590523 -76.322582 -10.642811
-1.778222 -76.630879 -10.699876
-2.044429 -76.603170 -10.622121
-1.832192 -76.375266 -10.599572
-1.998424 -75.870105 -10.345547
-2.190983 -75.615205 -10.188067
-2.263294 -75.897900 -10.273777
-2.575460 -75.726543 -10.111981
-2.315757 -76.513869 -10.507043
-2.084254 -76.210923 -10.458670
-2.993801 -76.843516 -10.417631
-2.635840 -76.658044 -10.459851
-2.570398 -76.196771 -10.300094
-2.535440 -75.295392 -9.976158
-4.479386 -74.259762 -8.962212
-2.583207 -74.484848 -9.724887
-2.830008 -74.672556 -9.700791
-3.064545 -74.517452 -9.588035
-3.017927 -74.981887 -9.730225
-3.569660 -74.415781 -9.400680
-3.928997 -74.719983 -9.335979
-3.535794 -74.898796 -9.533317
-4.245379 -74.949482 -9.266267
-4.338621 -75.298750 -9.343638
-4.470845 -75.089662 -9.192144
-4.275403 -74.555438 -9.135880
-4.486768 -74.844040 -9.102408
-4.919037 -74.542152 -8.716902
-4.665905 -74.629243 -8.928925
-4.902831 -74.838249 -8.797448
-4.720402 -75.044738 -9.004857
-4.586843 -75.341827 -9.208424
-4.658180 -75.539649 -9.239519
-5.020112 -75.141199 -8.759462
-3.997314 -75.189455 -9.459007
-3.391047 -75.257065 -9.696270
-3.072830 -75.539116 -9.896142
-3.034423 -76.213655 -10.170131
-2.927473 -75.921900 -10.081532
-3.395986 -76.009950 -9.983685
-3.686180 -76.306600 -10.021799
-2.965191 -76.521652 -10.315151
-3.282022 -76.758998 -10.315131
-3.377045 -76.475210 -10.183275
-3.747308 -76.633591 -10.120510
-3.499362 -76.725869 -10.242508
-4.839569 -75.461293 -9.048057
-3.592763 -75.611049 -9.761337
-3.704608 -75.305297 -9.608700
-3.947740 -75.571428 -9.626665
-4.153929 -75.796721 -9.642971
-4.241148 -75.567115 -9.503931
-4.499792 -75.576928 -9.366678
-4.465790 -75.891127 -9.535989
-4.705039 -75.735915 -9.299213
-4.783735 -76.057334 -9.454270
-4.230416 -76.058386 -9.720480
-4.060948 -76.353951 -9.901643
-3.875257 -75.939623 -9.805443
-5.602842 -73.888351 -7.893442
-3.716400 -71.787468 -9.302175
-2.105138 -72.899773 -9.776172
-1.852500 -73.024269 -9.884829
-1.998861 -72.728645 -9.922951
-3.432334 -72.057320 -9.414437
-3.165009 -72.305771 -9.506539
-5.563704 -75.167175 -8.071342
-0.738250 -74.399315 -10.413198
-0.846644 -74.816039 -10.331982
-3.322713 -71.745018 -9.496193
-4.071450 -72.794754 -9.077294
-3.439221 -72.388275 -9.381742
-3.687435 -72.487473 -9.272780
-3.821893 -72.734691 -9.204101
-2.312466 -72.662476 -9.783604
-4.757664 -73.549699 -8.683308
-1.072308 -74.229019 -10.002659
-2.873455 -72.503082 -9.584745
-2.600828 -72.687103 -9.665352
-4.843854 -73.160110 -8.614605
-4.573024 -73.003929 -8.791399
-4.304661 -72.911201 -8.949795
-5.329576 -75.126900 -8.412177
-5.120696 -74.792728 -8.573306
-5.219011 -75.967255 -8.814781
-4.992689 -75.847446 -9.086036
-5.176503 -75.548218 -8.712694
-5.324736 -73.647354 -8.210893
-5.126908 -72.973335 -8.375172
-5.055885 -73.502411 -8.468990
-4.872605 -73.850397 -8.630091
-5.085119 -74.430274 -8.542292
-5.176912 -73.994270 -8.404763
-5.412803 -74.450188 -8.194897
-2.251513 -72.102776 -9.976556
-2.255845 -72.416962 -9.884126
-1.401208 -73.531044 -10.072364
-4.309579 -72.603920 -8.954651
-4.265855 -72.276588 -8.986125
-4.101963 -72.524040 -9.073703
-4.064635 -71.985023 -9.112861
-3.960334 -72.330032 -9.154420
-3.726096 -72.156967 -9.277545
-1.087899 -73.992805 -10.150911
-0.891464 -74.378624 -10.159672
-1.222959 -73.701542 -10.187888
-0.979789 -73.944962 -10.351786
-1.684905 -72.930969 -10.062251
-1.606675 -73.268837 -9.962187
-1.488656 -72.907593 -10.314788
-1.428079 -73.269394 -10.204982
-1.191527 -73.418938 -10.481113
-2.585110 -72.122978 -9.789376
-2.582597 -72.425217 -9.728840
-2.884842 -72.205719 -9.638058
-2.941191 -71.879593 -9.664770
-3.158269 -72.029770 -9.547534
-4.565521 -72.422897 -8.797032
-4.777293 -72.762001 -8.650719
-4.514059 -72.734253 -8.826740
-0.324142 -75.088188 -10.673661
-0.593323 -74.952812 -10.484278
-0.916316 -75.871736 -10.656288
-0.564402 -75.489494 -10.659730
-0.855923 -75.301819 -10.470588
-1.598317 -72.482765 -10.421512
-1.957114 -72.117668 -10.233297
-1.866552 -72.517990 -10.116985
4.970365 -73.335756 -8.711022
5.277495 -73.660596 -8.484689
5.057859 -73.459179 -8.648391
4.889485 -73.500249 -8.719945
4.801532 -73.305909 -8.793217
4.154573 -73.060465 -9.099627
4.566928 -73.229180 -8.901607
4.270442 -73.246152 -9.002483
3.940711 -73.115301 -9.169169
4.047763 -73.254462 -9.084675
4.076599 -73.454475 -9.038187
4.834830 -73.681462 -8.719424
5.060017 -73.659611 -8.613073
5.229794 -73.914160 -8.481122
5.074236 -74.063383 -8.578267
5.425528 -74.127656 -8.323801
5.203848 -74.204817 -8.492894
5.423750 -74.429890 -8.329203
4.924151 -74.223858 -8.678014
4.347524 -73.490657 -8.933298
4.922872 -73.909256 -8.664921
4.645394 -73.536486 -8.818121
4.688120 -73.786560 -8.779675
4.442092 -73.771159 -8.883931
4.641246 -74.021400 -8.808997
3.869830 -73.619269 -9.108354
3.887452 -73.843602 -9.105467
4.128087 -73.758097 -9.009096
4.323646 -74.059167 -8.954100
4.573050 -74.356303 -8.886223
4.242361 -74.339902 -9.031004
3.819442 -73.341506 -9.162698
3.696110 -73.050216 -9.285979
3.433686 -73.116845 -9.357618
3.214210 -73.104259 -9.441479
3.563063 -73.281246 -9.270570
3.345525 -73.312041 -9.338144
3.568567 -73.530001 -9.233784
3.702188 -73.759125 -9.175232
3.127763 -73.310503 -9.412782
3.250330 -73.521049 -9.344469
2.789040 -73.096328 -9.690470
2.962933 -73.150275 -9.543338
2.738948 -73.310813 -9.623777
3.125736 -73.708839 -9.386016
2.545467 -73.421669 -9.723743
2.959076 -73.482720 -9.457062
2.697001 -73.590911 -9.561595
2.473890 -73.626239 -9.682309
2.303222 -73.772775 -9.747310
3.988057 -74.121556 -9.099891
2.892984 -73.775876 -9.470159
3.687093 -73.992926 -9.201349
3.415018 -73.798972 -9.290081
2.688627 -73.824433 -9.541899
2.563907 -73.750650 -9.595099
2.747244 -74.070377 -9.540039
3.408875 -74.108885 -9.325026
3.100621 -74.014075 -9.422522
2.901064 -74.312914 -9.529780
3.647985 -74.362412 -9.273425
2.624809 -74.417921 -9.617796
2.428086 -73.805614 -9.656419
2.502564 -73.973868 -9.611146
2.503424 -74.215592 -9.620237
2.286669 -73.979204 -9.700798
2.313508 -74.189845 -9.669314
2.147977 -74.162237 -9.730982
2.434569 -74.578380 -9.678586
2.361097 -74.401437 -9.667573
2.136722 -74.374623 -9.714099
1.976493 -74.268909 -9.786415
1.987609 -74.418432 -9.750489
1.841407 -74.481846 -9.807254
3.209806 -74.421249 -9.447633
5.134793 -74.484223 -8.567617
5.522193 -74.943147 -8.279268
5.544411 -74.698189 -8.233959
5.311600 -74.791382 -8.466918
5.395613 -75.140578 -8.439147
5.309244 -75.371346 -8.578865
5.140352 -75.388547 -8.752872
5.111455 -75.101313 -8.699807
3.992698 -74.540124 -9.171394
4.873437 -74.545891 -8.759564
4.870735 -74.867446 -8.826143
5.059071 -74.748336 -8.671294
4.634642 -74.721626 -8.929632
4.336802 -74.640731 -9.050073
4.105889 -74.939714 -9.212784
4.020953 -75.256926 -9.326149
4.869529 -75.124305 -8.888400
4.946184 -75.363072 -8.903799
4.439239 -74.985163 -9.083006
4.755316 -75.267503 -8.999609
4.687021 -75.037315 -8.976008
4.558951 -75.283518 -9.107653
5.086454 -75.535982 -8.849747
4.956249 -75.624288 -8.986783
5.246185 -75.578904 -8.707822
5.138466 -75.741817 -8.870807
4.733569 -75.511971 -9.092004
4.829951 -75.740626 -9.121119
5.173959 -76.019356 -8.906071
4.991342 -75.867725 -9.046160
4.987495 -76.142965 -9.126390
4.815289 -75.951510 -9.210975
4.713241 -76.458755 -9.463885
4.787364 -76.206454 -9.319256
4.642523 -75.760342 -9.239565
4.285818 -75.278158 -9.226572
4.607581 -76.226926 -9.453870
4.457979 -75.549418 -9.243431
4.613999 -76.006806 -9.358154
4.405229 -76.106735 -9.495286
4.393301 -75.820367 -9.379569
4.107665 -76.514139 -9.790151
4.334765 -76.530858 -9.702998
4.479826 -76.376556 -9.575088
4.236460 -76.286606 -9.637879
4.108337 -75.577376 -9.391488
2.011812 -74.576638 -9.746420
2.598006 -74.669863 -9.667848
3.751967 -74.611420 -9.279817
3.503884 -74.767614 -9.408675
3.836380 -74.785528 -9.284115
3.166846 -74.721080 -9.520949
2.884015 -74.687107 -9.603508
2.661760 -74.889010 -9.702272
3.795817 -75.059707 -9.363353
3.165959 -74.968183 -9.574913
2.882048 -75.059405 -9.687650
3.485391 -75.168588 -9.507154
2.827330 -75.299861 -9.765243
2.524215 -74.996593 -9.753049
2.664998 -75.137909 -9.764038
2.227940 -74.594791 -9.711032
2.392209 -74.813963 -9.726178
2.372649 -75.027296 -9.776680
2.183347 -75.006023 -9.780920
2.093397 -74.803087 -9.753925
1.928813 -75.024147 -9.795915
1.830632 -74.783370 -9.792841
2.468529 -75.185473 -9.809016
2.256791 -75.194585 -9.825796
2.044143 -75.196762 -9.826574
1.563743 -75.122818 -9.820233
1.946479 -75.362245 -9.869531
1.845256 -75.229645 -9.832897
2.129653 -75.381835 -9.883816
4.006154 -76.265508 -9.713186
3.771080 -75.386816 -9.457335
3.131229 -75.312644 -9.670682
3.465861 -75.457380 -9.589378
3.647578 -75.790203 -9.641778
4.087356 -75.988469 -9.563760
3.210937 -75.649676 -9.742413
3.221285 -75.985004 -9.864334
3.807688 -76.130455 -9.723388
3.796955 -76.456992 -9.877345
3.509813 -76.200395 -9.858382
3.476558 -76.521007 -10.014682
2.354538 -75.407517 -9.887115
2.617032 -75.423343 -9.855409
2.891011 -75.541156 -9.817300
2.713782 -75.698152 -9.925420
2.938070 -75.828577 -9.903104
2.223479 -75.571671 -9.957139
1.740004 -75.455521 -9.876731
2.464282 -75.697659 -9.984855
2.011753 -75.552132 -9.954671
1.881324 -75.749405 -10.092168
3.145898 -76.350244 -10.057314
2.772344 -76.235399 -10.150004
2.951761 -76.077093 -10.004084
2.710248 -75.939634 -10.025984
2.196748 -75.778366 -10.069581
2.152364 -76.045737 -10.261558
2.462364 -76.018798 -10.145535
1.535038 -74.124847 -10.450981
4.768502 -73.141419 -8.849221
4.695349 -72.946594 -8.925717
5.236335 -73.478947 -8.552079
4.081113 -72.325119 -9.342817
4.516249 -72.075668 -9.158009
5.453735 -73.924524 -8.314590
5.620906 -74.015496 -8.169548
5.434146 -73.746708 -8.367694
5.422968 -73.511308 -8.397497
4.106004 -72.014458 -9.445243
3.624114 -72.074409 -9.700915
3.691797 -72.351891 -9.572806
3.251923 -72.459633 -9.769162
2.944875 -72.798416 -9.747566
5.936694 -74.921272 -7.644220
1.543868 -74.669586 -9.866173
1.439809 -74.506836 -10.157769
2.673467 -72.461472 -10.209860
3.117198 -72.224091 -9.921583
2.826325 -72.661453 -9.983154
5.925251 -74.446106 -7.809100
5.715597 -74.478455 -8.058105
5.806317 -74.147583 -7.982909
5.620541 -74.250441 -8.158960
3.718935 -72.597763 -9.458217
5.494151 -75.892235 -8.377899
5.332393 -75.836855 -8.682876
5.434253 -75.610207 -8.484309
5.570995 -75.551765 -8.192751
5.490391 -75.382198 -8.373007
5.608082 -75.204071 -8.195011
5.756455 -75.323265 -7.910922
5.752883 -74.864227 -8.012009
5.342984 -73.272782 -8.491040
5.138214 -73.298941 -8.628474
4.960834 -73.086880 -8.753019
5.192218 -73.091172 -8.617189
5.766001 -73.814842 -8.043217
6.009223 -73.869331 -7.767164
5.599025 -73.708872 -8.215950
4.236791 -72.889877 -9.120519
4.433956 -72.975807 -9.022185
3.724734 -72.813087 -9.355376
3.998028 -72.836403 -9.240622
3.087889 -72.923447 -9.570987
3.417492 -72.839546 -9.468549
3.344621 -72.660690 -9.610098
4.037161 -72.593391 -9.275587
4.312839 -72.660484 -9.125237
4.412210 -72.393295 -9.125509
4.856311 -72.268768 -8.923113
4.686585 -72.552635 -8.981900
4.539283 -72.783943 -9.015477
4.858998 -72.758728 -8.855664
5.080902 -72.546715 -8.757540
5.801404 -73.458092 -8.029058
5.466663 -72.694412 -8.478633
5.178033 -72.831169 -8.663878
5.705341 -73.023178 -8.181853
5.430893 -73.016541 -8.455669
5.564234 -73.293182 -8.276290
1.815071 -73.676697 -10.457220
2.257783 -73.532661 -9.907170
2.433915 -72.924141 -10.206220
2.564358 -73.098557 -9.932108
2.235241 -73.371887 -10.142002
2.116778 -73.267654 -10.396074
1.693241 -74.208626 -9.953059
2.048391 -73.999947 -9.829745
1.717326 -73.997360 -10.207448
1.938091 -73.759323 -10.026286
1.947076 -73.604164 -10.241533
3 466 465 464
3 463 462 465
3 464 465 462
3 466 461 460
3 459 460 458
3 461 458 460
3 459 457 460
3 463 465 457
3 466 464 456
3 455 454 453
3 452 451 454
3 454 451 453
3 455 453 450
3 452 449 451
3 452 448 449
3 447 446 448
3 445 449 446
3 448 446 449
3 445 446 444
3 447 443 446
3 442 444 443
3 446 443 444
3 441 440 439
3 442 438 437
3 447 436 435
3 447 435 443
3 442 443 438
3 435 438 443
3 455 450 434
3 433 432 450
3 434 450 432
3 452 431 430
3 429 430 431
3 452 454 431
3 455 428 454
3 429 431 428
3 454 428 431
3 427 426 425
3 424 425 423
3 426 423 425
3 424 423 422
3 421 422 420
3 423 420 422
3 442 437 419
3 441 419 440
3 437 440 419
3 418 417 416
3 433 415 417
3 427 416 415
3 417 415 416
3 459 458 414
3 413 414 412
3 458 412 414
3 466 456 461
3 411 462 410
3 427 409 426
3 427 415 409
3 441 408 407
3 459 414 408
3 413 407 414
3 408 414 407
3 441 407 406
3 413 405 407
3 404 406 405
3 407 405 406
3 455 434 403
3 402 403 434
3 434 401 400
3 418 401 417
3 434 432 401
3 433 417 432
3 401 432 417
3 404 399 398
3 445 444 399
3 442 398 444
3 399 444 398
3 404 398 406
3 442 419 398
3 441 406 419
3 398 419 406
3 429 428 397
3 455 403 428
3 428 403 397
3 434 400 402
3 441 439 408
3 447 448 396
3 452 430 448
3 395 396 430
3 448 430 396
3 447 396 436
3 462 411 394
3 462 394 464
3 466 460 457
3 466 457 465
3 393 392 391
3 390 389 388
3 387 388 389
3 388 393 390
3 391 386 385
3 384 393 391
3 385 386 383
3 391 385 382
3 389 390 381
3 380 390 384
3 379 380 378
3 390 393 384
3 391 382 384
3 384 378 380
3 384 382 377
3 391 392 386
3 381 390 380
3 376 387 375
3 374 376 375
3 374 375 373
3 387 372 375
3 371 372 381
3 372 387 389
3 379 381 380
3 371 381 379
3 370 373 369
3 375 369 373
3 371 368 369
3 367 368 371
3 372 371 369
3 369 368 366
3 367 371 379
3 369 375 372
3 381 372 389
3 374 373 365
3 364 382 385
3 383 363 362
3 363 383 361
3 360 364 362
3 362 364 385
3 377 364 359
3 377 382 364
3 360 359 364
3 358 377 359
3 362 363 360
3 377 378 384
3 361 357 356
3 357 361 410
3 356 357 355
3 356 360 363
3 354 359 360
3 359 354 353
3 353 354 352
3 354 360 356
3 356 355 354
3 352 354 355
3 352 355 351
3 356 363 361
3 358 359 353
3 378 358 350
3 358 378 377
3 350 358 349
3 378 350 348
3 368 347 366
3 367 347 368
3 348 346 367
3 347 367 345
3 348 367 379
3 344 366 347
3 346 348 350
3 379 378 348
3 349 352 343
3 349 358 353
3 342 346 343
3 343 346 350
3 346 345 367
3 341 345 342
3 340 339 338
3 341 339 345
3 342 345 346
3 345 339 347
3 337 343 352
3 343 350 349
3 353 352 349
3 344 347 339
3 355 357 336
3 383 362 385
3 335 369 366
3 334 333 332
3 332 331 334
3 369 335 370
3 370 365 373
3 370 335 330
3 365 370 334
3 334 329 333
3 334 370 329
3 329 330 328
3 329 370 330
3 335 327 330
3 329 326 333
3 335 325 327
3 365 334 331
3 365 331 374
3 327 324 330
3 323 322 326
3 326 322 333
3 328 326 329
3 323 326 328
3 321 320 323
3 320 319 318
3 321 323 328
3 321 324 317
3 324 321 328
3 317 324 316
3 321 317 319
3 318 319 315
3 318 315 421
3 421 315 314
3 313 315 319
3 319 317 313
3 312 315 313
3 317 316 313
3 319 320 321
3 328 330 324
3 316 324 327
3 311 310 309
3 311 316 327
3 311 327 325
3 325 308 311
3 307 316 309
3 309 316 311
3 310 306 309
3 307 309 306
3 325 305 304
3 325 335 305
3 344 340 304
3 340 344 339
3 303 308 304
3 304 308 325
3 310 308 302
3 310 311 308
3 301 300 299
3 302 300 310
3 302 308 303
3 310 300 306
3 298 304 340
3 305 344 304
3 335 366 305
3 306 300 297
3 312 307 296
3 312 313 307
3 295 296 297
3 312 296 314
3 422 314 295
3 314 422 421
3 295 424 422
3 294 424 295
3 314 296 295
3 297 296 307
3 314 315 312
3 297 301 293
3 297 307 306
3 292 291 293
3 297 293 294
3 425 294 291
3 425 424 294
3 291 427 425
3 292 427 291
3 294 293 291
3 293 301 290
3 294 295 297
3 300 301 297
3 300 302 299
3 313 316 307
3 366 344 305
3 289 339 341
3 357 288 336
3 288 410 462
3 287 288 286
3 336 288 287
3 351 336 285
3 351 355 336
3 284 351 285
3 351 284 283
3 285 336 287
3 283 352 351
3 286 462 463
3 286 285 287
3 286 463 282
3 285 281 284
3 281 285 282
3 282 280 281
3 280 282 463
3 285 286 282
3 284 281 279
3 278 280 277
3 286 288 462
3 278 281 280
3 337 283 276
3 337 352 283
3 283 284 276
3 337 276 342
3 289 275 339
3 289 342 274
3 273 289 274
3 289 272 275
3 342 276 274
3 339 275 338
3 276 271 274
3 342 343 337
3 271 279 278
3 276 284 279
3 270 269 278
3 271 278 269
3 289 273 272
3 274 271 273
3 272 268 267
3 273 268 272
3 273 271 266
3 272 267 275
3 266 271 269
3 271 276 279
3 281 278 279
3 275 267 265
3 280 463 264
3 288 357 410
3 277 264 263
3 264 277 280
3 263 264 457
3 277 263 270
3 269 262 266
3 269 270 262
3 262 270 263
3 261 266 262
3 263 260 262
3 259 273 266
3 457 459 260
3 260 459 258
3 457 260 263
3 262 258 261
3 257 258 256
3 256 408 257
3 408 256 459
3 258 459 256
3 257 408 439
3 260 258 262
3 264 463 457
3 257 261 258
3 255 259 261
3 261 259 266
3 261 257 254
3 255 261 254
3 267 268 253
3 252 268 255
3 255 251 252
3 251 255 254
3 268 259 255
3 252 251 250
3 254 249 251
3 268 273 259
3 249 439 440
3 249 254 257
3 249 440 248
3 250 248 247
3 250 251 248
3 247 246 250
3 247 248 440
3 440 437 247
3 252 250 246
3 248 251 249
3 439 249 257
3 253 268 252
3 278 277 270
3 438 247 437
3 275 298 338
3 275 265 298
3 298 265 245
3 298 303 304
3 303 245 244
3 245 303 298
3 243 244 245
3 244 299 302
3 245 265 243
3 340 338 298
3 242 241 240
3 242 265 241
3 240 241 253
3 242 243 265
3 243 239 244
3 239 243 238
3 237 238 236
3 238 237 239
3 243 242 238
3 239 237 235
3 242 234 238
3 265 267 241
3 253 241 267
3 244 239 233
3 299 233 290
3 299 244 233
3 232 290 231
3 232 293 290
3 292 416 427
3 416 292 232
3 232 418 416
3 230 418 232
3 293 232 292
3 231 290 233
3 301 299 290
3 233 229 231
3 229 233 235
3 229 235 228
3 231 229 228
3 230 401 418
3 401 230 400
3 402 400 228
3 228 400 230
3 230 231 228
3 228 235 227
3 231 230 232
3 239 235 233
3 226 235 237
3 303 244 302
3 225 240 246
3 240 253 252
3 224 246 223
3 225 246 224
3 234 236 238
3 242 225 234
3 222 234 225
3 221 236 234
3 222 225 224
3 237 236 226
3 223 438 220
3 223 246 247
3 220 438 435
3 220 222 224
3 222 221 234
3 221 222 436
3 436 222 220
3 220 435 436
3 221 436 396
3 220 224 223
3 247 438 223
3 236 221 219
3 226 218 227
3 226 236 218
3 397 227 217
3 216 228 227
3 402 216 403
3 402 228 216
3 397 403 216
3 216 227 397
3 227 218 217
3 235 226 227
3 221 395 219
3 218 236 219
3 219 395 430
3 217 215 429
3 217 218 215
3 430 429 215
3 215 219 430
3 217 429 397
3 215 218 219
3 396 395 221
3 240 225 242
3 252 246 240
3 342 289 341
3 214 213 212
3 211 210 209
3 211 208 210
3 210 208 207
3 206 205 204
3 203 202 201
3 200 201 199
3 202 199 201
3 198 197 196
3 195 194 197
3 196 197 194
3 198 193 192
3 191 190 193
3 193 190 192
3 189 188 187
3 186 185 188
3 187 188 185
3 186 184 185
3 206 204 184
3 185 184 204
3 195 197 183
3 198 192 197
3 183 197 192
3 200 199 182
3 182 199 181
3 180 179 178
3 177 179 176
3 175 176 174
3 179 174 176
3 173 172 171
3 180 178 170
3 180 170 169
3 206 168 167
3 206 167 205
3 175 205 166
3 167 166 205
3 200 165 164
3 191 163 190
3 177 176 162
3 175 166 176
3 162 176 166
3 200 161 165
3 186 188 160
3 189 159 188
3 188 159 160
3 189 158 159
3 186 160 157
3 206 184 168
3 186 157 184
3 184 157 168
3 203 156 202
3 211 155 208
3 191 154 155
3 208 155 154
3 191 193 154
3 180 169 153
3 203 201 152
3 200 164 201
3 201 164 152
3 203 152 151
3 189 151 158
3 152 158 151
3 214 194 150
3 195 149 194
3 148 150 149
3 194 149 150
3 214 150 182
3 148 161 150
3 200 182 161
3 150 161 182
3 189 187 147
3 189 147 151
3 203 151 156
3 147 156 151
3 146 174 179
3 146 179 180
3 212 196 194
3 212 194 214
3 213 214 182
3 213 182 181
3 145 144 143
3 142 141 140
3 141 142 172
3 139 140 141
3 138 140 139
3 137 138 136
3 138 137 140
3 135 134 136
3 145 143 137
3 141 172 133
3 140 137 143
3 145 137 136
3 132 131 130
3 129 132 130
3 128 129 130
3 131 127 130
3 126 127 145
3 127 131 144
3 134 145 136
3 126 145 134
3 125 124 126
3 124 130 126
3 123 126 134
3 123 125 126
3 123 134 122
3 126 130 127
3 144 145 127
3 124 128 130
3 136 138 121
3 173 120 133
3 120 173 169
3 119 133 118
3 119 141 133
3 117 118 133
3 119 118 139
3 133 120 117
3 119 139 141
3 170 116 120
3 115 116 114
3 116 117 120
3 117 115 113
3 115 117 116
3 113 115 112
3 118 117 111
3 116 170 114
3 120 169 170
3 111 117 113
3 118 110 139
3 110 118 111
3 121 110 109
3 110 121 138
3 122 135 108
3 135 136 121
3 121 108 135
3 122 134 135
3 109 110 111
3 139 110 138
3 109 112 107
3 109 111 113
3 106 108 107
3 107 108 121
3 105 108 104
3 105 122 108
3 106 104 108
3 105 104 103
3 102 103 104
3 121 109 107
3 113 112 109
3 122 105 123
3 115 101 112
3 172 173 133
3 100 123 105
3 99 98 128
3 128 98 97
3 97 129 128
3 128 124 99
3 96 95 99
3 99 95 98
3 94 93 99
3 93 92 91
3 99 124 125
3 93 96 99
3 90 89 96
3 88 89 90
3 87 88 90
3 90 86 87
3 96 91 86
3 91 96 93
3 85 86 84
3 86 83 87
3 83 85 209
3 85 83 86
3 82 209 85
3 81 86 91
3 86 90 96
3 89 95 96
3 94 99 125
3 94 100 92
3 125 123 94
3 92 100 80
3 92 81 91
3 81 80 79
3 80 81 92
3 78 79 80
3 81 79 84
3 80 100 77
3 81 84 86
3 76 77 75
3 75 77 100
3 75 100 105
3 102 76 75
3 78 76 74
3 76 78 77
3 74 73 72
3 79 78 71
3 102 75 103
3 77 78 80
3 100 94 123
3 71 78 74
3 70 71 69
3 70 84 79
3 70 69 68
3 84 70 82
3 70 211 82
3 211 70 68
3 211 68 155
3 82 211 209
3 69 67 68
3 84 82 85
3 71 72 66
3 72 71 74
3 66 72 65
3 66 67 69
3 191 155 67
3 155 68 67
3 65 67 66
3 191 67 65
3 65 72 64
3 69 71 66
3 79 71 70
3 74 76 63
3 93 94 92
3 75 105 103
3 62 107 112
3 61 114 60
3 178 114 170
3 101 59 58
3 61 57 101
3 58 112 101
3 101 115 61
3 60 114 178
3 112 58 62
3 60 179 177
3 179 60 178
3 60 177 57
3 57 56 59
3 56 57 177
3 55 59 54
3 57 59 101
3 177 162 56
3 60 57 61
3 58 59 53
3 62 52 51
3 62 58 52
3 50 51 49
3 62 51 106
3 106 50 48
3 50 106 51
3 47 48 50
3 46 104 48
3 49 51 52
3 106 107 62
3 55 45 52
3 55 53 59
3 44 45 55
3 45 49 52
3 47 49 43
3 47 50 49
3 42 47 43
3 47 42 48
3 43 49 45
3 53 55 52
3 58 53 52
3 48 42 46
3 41 59 56
3 48 104 106
3 41 54 59
3 40 41 167
3 44 54 39
3 40 54 41
3 39 54 40
3 44 55 54
3 41 162 166
3 44 38 45
3 167 168 40
3 40 168 39
3 39 157 160
3 157 39 168
3 44 39 38
3 167 41 166
3 37 39 160
3 43 38 36
3 43 45 38
3 35 36 34
3 43 36 33
3 32 33 31
3 31 33 36
3 35 31 36
3 32 31 35
3 36 38 37
3 43 33 42
3 160 30 37
3 37 38 39
3 30 159 158
3 37 30 34
3 34 158 152
3 158 34 30
3 35 34 29
3 37 34 36
3 159 30 160
3 164 34 152
3 56 162 41
3 42 33 28
3 27 63 76
3 27 102 46
3 73 63 26
3 73 74 63
3 25 26 63
3 24 73 26
3 63 27 23
3 64 72 73
3 46 22 23
3 22 46 28
3 23 22 21
3 46 23 27
3 20 25 19
3 21 25 23
3 21 19 25
3 26 25 18
3 21 22 17
3 23 25 63
3 104 46 102
3 20 16 25
3 64 24 15
3 24 64 73
3 15 24 18
3 64 15 163
3 191 65 163
3 14 190 163
3 163 15 14
3 65 64 163
3 13 18 16
3 16 18 25
3 183 12 16
3 13 16 12
3 14 13 192
3 14 15 13
3 192 13 12
3 14 192 190
3 192 12 183
3 13 15 18
3 24 26 18
3 11 16 20
3 102 27 76
3 33 10 28
3 28 46 42
3 9 10 8
3 28 10 7
3 6 17 7
3 17 22 7
3 9 7 10
3 9 6 7
3 10 32 5
3 4 21 17
3 165 5 29
3 29 5 32
3 164 29 34
3 165 29 164
3 8 165 161
3 165 8 5
3 9 8 148
3 5 8 10
3 32 35 29
3 161 148 8
3 3 19 4
3 21 4 19
3 4 17 2
3 1 3 4
3 195 183 11
3 183 16 11
3 11 20 3
3 3 195 11
3 1 4 2
3 20 19 3
3 9 0 6
3 0 9 148
3 0 148 149
3 0 1 2
3 195 1 149
3 1 195 3
3 149 1 0
3 0 2 6
3 6 2 17
3 22 28 7
3 32 10 33
3 61 115 114
