ply
format ascii 1.0
comment Exported by RapidForm
element vertex 516
property float x
property float y
property float z
element face 920
property list uchar int vertex_index
end_header
-2.117170 -73.990683 -12.312382
-2.483892 -73.929254 -12.120760
-1.556063 -72.297736 -11.523660
-1.656245 -72.570232 -11.691100
-1.741224 -72.472944 -11.610334
-3.742361 -74.073097 -11.577259
-2.190708 -74.235214 -12.416061
-3.802265 -73.847068 -11.426099
-1.885855 -74.300806 -12.557416
-4.038382 -72.266559 -10.759687
-3.731038 -72.257905 -10.894251
-2.258464 -73.046946 -11.736658
-2.024004 -73.089853 -11.841627
-1.783055 -72.817898 -11.793449
-1.878320 -72.975373 -11.837745
-1.982858 -72.760422 -11.703560
-1.380520 -73.206412 -12.088122
-2.519845 -72.482395 -11.404418
-2.451094 -72.641979 -11.489586
-2.686548 -72.579881 -11.378061
-2.212433 -72.699394 -11.599132
-2.054668 -72.596596 -11.602874
-2.525326 -72.984450 -11.604439
-2.371920 -72.829441 -11.596405
-2.672915 -73.123309 -11.606565
-2.777654 -72.939334 -11.482703
-3.246611 -72.909405 -11.275748
-3.016302 -72.914363 -11.374068
-3.151732 -73.078038 -11.384724
-2.857905 -72.737916 -11.369252
-2.912854 -72.545526 -11.280524
-3.474676 -72.928997 -11.186518
-3.313690 -72.711232 -11.175383
-3.345245 -72.516269 -11.103436
-3.533658 -72.464012 -11.018387
-0.989372 -72.368770 -11.804178
-3.137810 -72.533047 -11.189243
-1.366611 -72.395476 -11.642642
-1.252249 -72.661378 -11.866940
-1.515612 -72.604806 -11.749407
-1.631119 -72.729845 -11.791730
-3.139267 -73.444826 -11.554189
-3.148842 -73.292529 -11.480384
-2.454283 -72.358083 -11.381262
-2.404348 -74.154639 -12.298502
-4.514671 -73.029205 -10.591660
-4.244358 -72.947257 -10.793100
-4.305477 -73.088877 -10.781505
-2.693535 -72.165358 -11.250448
-0.944671 -73.337203 -12.266139
-4.000894 -72.807086 -10.903513
-4.136969 -72.835826 -10.836099
-4.371272 -72.609165 -10.619710
-4.116606 -72.386085 -10.742868
-3.630405 -72.925511 -11.116281
-3.915809 -72.863926 -10.960808
-4.635830 -73.828644 -10.793848
-3.780215 -72.903275 -11.038128
-4.580692 -73.920391 -10.884512
-3.678307 -72.390927 -10.943931
-4.450917 -73.999803 -11.023073
-1.282204 -72.899984 -11.984088
-1.352830 -73.021478 -12.015802
-4.745633 -73.489356 -10.549365
-3.991931 -72.384332 -10.808310
-3.854697 -72.419008 -10.876250
-0.946160 -72.562954 -11.912962
4.627342 -73.545783 -11.075301
3.203215 -73.530946 -11.843604
5.225723 -73.319471 -10.640017
4.689656 -72.616999 -10.731538
3.878057 -72.877597 -11.220151
4.078702 -72.289970 -10.963281
2.965840 -72.486453 -11.422661
5.212414 -73.909536 -10.835637
4.523175 -74.239762 -11.420507
4.503558 -72.103551 -10.749543
4.003327 -74.105693 -11.678334
2.768493 -73.635426 -12.069476
5.527140 -73.673610 -10.510855
5.382615 -72.663745 -10.316717
3.382247 -72.203434 -11.223052
4.953935 -74.314519 -11.165813
4.959606 -72.134803 -10.493606
2.622814 -73.193780 -11.811128
3.926559 -71.998828 -11.013519
5.154836 -74.322745 -11.009947
5.027877 -74.062457 -11.017733
5.221221 -74.166245 -10.906978
5.099448 -74.462224 -11.105921
4.506951 -74.455425 -11.534355
4.653482 -74.440686 -11.422002
4.738539 -74.198073 -11.264644
4.804712 -74.422363 -11.311233
4.902678 -74.510639 -11.276365
5.009315 -74.511900 -11.196853
3.594278 -72.505520 -11.225839
3.731876 -72.372201 -11.123875
3.937580 -72.469455 -11.058516
5.338683 -74.143849 -10.805426
5.857479 -73.106729 -9.934045
5.041223 -72.632263 -10.539433
5.292372 -72.992198 -10.480477
4.989988 -72.990741 -10.678214
4.965806 -73.716697 -10.939002
4.970294 -73.414661 -10.833955
5.172004 -73.553712 -10.751673
4.399209 -74.361116 -11.559990
5.407020 -73.994000 -10.706662
5.362786 -73.740239 -10.672566
4.033300 -74.659541 -11.964774
5.487551 -73.861534 -10.603880
4.223053 -74.675848 -11.833994
4.552213 -73.954887 -11.277194
4.801731 -73.923550 -11.116255
5.567407 -72.798397 -10.188130
4.559407 -74.663658 -11.569906
5.680529 -73.008154 -10.125881
4.367169 -74.557067 -11.674764
5.544805 -73.017771 -10.272971
3.419450 -72.654741 -11.353808
3.233274 -72.410465 -11.333307
5.578710 -73.854296 -10.513280
5.638866 -73.773478 -10.424694
3.824863 -74.345323 -11.940355
3.973008 -74.443206 -11.896428
5.377601 -73.458534 -10.568868
5.446554 -73.206954 -10.422637
5.563967 -73.451743 -10.396805
4.127002 -74.492074 -11.818252
4.222887 -74.339866 -11.664300
4.357343 -74.188434 -11.497213
3.716257 -71.966477 -11.092262
3.691141 -72.152773 -11.103264
3.651272 -74.378850 -12.082123
2.889985 -74.029676 -12.288281
3.155539 -73.866779 -12.063263
3.317253 -73.987133 -12.051363
2.952563 -73.807035 -12.117202
2.962643 -73.548683 -11.951679
2.731963 -73.831579 -12.215400
4.658008 -73.062350 -10.884437
2.557949 -73.819167 -12.267881
4.849080 -72.427106 -10.602638
5.118370 -72.433317 -10.445629
4.331465 -71.983454 -10.842531
4.324343 -72.216164 -10.847117
-3.279151 -71.670670 -10.961885
4.142515 -72.070871 -10.928388
2.326157 -73.365237 -12.026093
2.385469 -73.222278 -11.889818
2.513665 -73.377891 -11.969732
5.182242 -72.239284 -10.368092
5.146494 -72.063749 -10.362980
2.430173 -73.107861 -11.761451
3.944569 -73.469591 -11.416753
4.301583 -73.208928 -11.123627
4.361305 -73.739911 -11.297582
2.606237 -73.529328 -12.044858
2.587760 -73.675484 -12.151685
4.559156 -72.361894 -10.745588
4.703733 -72.159335 -10.642351
5.715484 -73.450140 -10.228512
5.335351 -72.426686 -10.298474
5.522117 -72.581170 -10.178347
5.500630 -72.391703 -10.153678
4.760668 -71.953682 -10.596645
4.611057 -71.983825 -10.684270
5.670364 -73.629572 -10.342319
4.110632 -71.944017 -10.948786
4.050037 -71.872614 -10.971178
4.904790 -71.907587 -10.506211
2.752725 -72.944661 -11.640267
3.150018 -72.996973 -11.594933
2.863466 -73.264469 -11.815223
4.492079 -71.924985 -10.753470
2.536732 -73.001383 -11.667546
2.626981 -72.794562 -11.566642
3.939962 -71.847442 -11.009046
5.037433 -71.942883 -10.420658
3.806069 -71.870026 -11.060270
2.616358 -72.591973 -11.506816
2.490049 -72.489197 -11.528327
2.665979 -72.396003 -11.449244
3.620208 -73.729955 -11.723917
3.548276 -73.190709 -11.509915
3.672981 -71.870772 -11.107416
3.684172 -74.184187 -11.939069
3.125393 -72.245303 -11.304037
2.751899 -73.421799 -11.936639
2.821481 -72.304688 -11.384193
4.271023 -72.711870 -10.969933
4.793352 -71.772821 -10.558922
4.338487 -72.474903 -10.875818
4.974425 -71.771901 -10.434110
2.958770 -72.237841 -11.334090
5.200879 -71.879623 -10.286267
3.761439 -72.665342 -11.201426
3.784822 -72.531970 -11.145574
3.919573 -72.662115 -11.124449
5.347978 -72.174398 -10.229661
3.481201 -72.354392 -11.226996
3.569210 -72.308859 -11.178419
3.860690 -72.290507 -11.050115
4.888782 -72.660234 -10.635187
5.014332 -72.814621 -10.607696
4.849765 -72.818898 -10.702486
5.320695 -72.820387 -10.408200
5.171956 -72.811566 -10.509028
5.215227 -72.647709 -10.434217
5.113975 -73.158539 -10.659721
5.576180 -72.266713 -10.031798
5.141082 -72.985576 -10.583662
5.258384 -73.158741 -10.560292
4.774375 -73.682228 -11.043138
4.801156 -73.481573 -10.954757
5.091570 -73.323935 -10.730331
4.881601 -74.116635 -11.140441
4.535825 -73.710855 -11.188920
4.661398 -73.760286 -11.137547
5.446924 -72.852269 -10.315098
5.638397 -73.112348 -10.204307
3.401189 -72.435778 -11.285288
3.640154 -72.774259 -11.298688
3.317657 -72.521125 -11.346268
3.217901 -72.608322 -11.409256
3.853456 -74.205148 -11.833871
3.946251 -74.289787 -11.822438
5.328740 -73.285412 -10.551925
5.596985 -73.184231 -10.269531
5.615698 -73.310736 -10.292268
4.238862 -74.516348 -11.756325
4.057550 -74.334739 -11.774171
4.216629 -74.107912 -11.542988
3.252220 -74.113840 -12.169746
3.183250 -74.047952 -12.164424
3.189379 -73.716408 -11.956648
3.295944 -73.763622 -11.928146
3.363127 -74.169062 -12.138323
3.094800 -73.695838 -11.988437
3.062097 -74.006048 -12.197628
4.830834 -73.014884 -10.775533
4.668925 -72.844963 -10.807640
4.971499 -73.185202 -10.754840
4.645949 -73.298732 -10.974326
4.815537 -73.238878 -10.861022
5.261459 -72.540854 -10.376634
4.206591 -71.955500 -10.910017
3.904507 -72.170531 -11.018773
4.009822 -72.127692 -10.978287
3.970201 -73.765896 -11.531075
4.144893 -73.611010 -11.364961
4.170562 -73.890400 -11.470312
4.103431 -73.054077 -11.169877
4.121626 -73.328139 -11.264342
3.917712 -73.177670 -11.313643
4.466170 -73.560309 -11.168760
4.313768 -73.464833 -11.214483
4.477196 -73.360024 -11.086764
5.628276 -72.681459 -10.099204
5.412104 -72.974651 -10.381593
2.686886 -73.059353 -11.713418
2.821063 -73.089942 -11.722339
3.076611 -72.770041 -11.514034
2.951788 -72.948837 -11.623628
2.862222 -72.762757 -11.544738
3.030208 -73.349213 -11.814767
3.008898 -73.142485 -11.710344
3.195157 -73.233820 -11.692344
2.473220 -72.871911 -11.597733
2.769701 -72.629093 -11.496843
2.807448 -72.419823 -11.428349
2.766763 -72.504215 -11.458875
3.801362 -73.878551 -11.687637
3.778387 -73.605258 -11.570118
3.390383 -73.346210 -11.659634
3.589096 -73.462937 -11.611650
3.430398 -73.613583 -11.772427
3.748583 -73.320425 -11.461504
3.705192 -73.039659 -11.368649
3.523978 -74.234357 -12.078711
3.798101 -74.070687 -11.793857
3.201517 -72.105852 -11.243182
2.907587 -73.396441 -11.881231
3.347956 -73.081686 -11.556255
3.286260 -72.835198 -11.475718
3.491152 -72.926814 -11.426743
4.479228 -73.125451 -11.000374
4.090347 -72.813158 -11.091279
4.288860 -72.965645 -11.043380
4.478271 -72.896388 -10.922993
4.493728 -72.680740 -10.849044
4.139284 -72.513821 -10.978471
4.519770 -72.532998 -10.797176
4.071397 -72.632764 -11.042142
4.444635 -74.089660 -11.398362
4.348075 -73.993794 -11.411828
3.469068 -73.856402 -11.882748
3.645449 -73.966481 -11.835564
3.499820 -74.068558 -11.989769
2.390092 -73.034984 -11.697372
-4.454251 -73.722679 -10.891820
-4.521621 -73.473930 -10.731305
4.961068 -74.693952 -11.276179
5.109342 -74.661105 -11.151532
5.670855 -73.945690 -10.428203
5.702723 -74.141370 -10.444797
5.240825 -74.579786 -11.013463
4.774147 -74.666674 -11.406106
5.869316 -73.439939 -10.030188
5.714041 -73.230093 -10.153605
5.747882 -73.825654 -10.302374
5.820428 -73.665146 -10.165208
5.570301 -74.057374 -10.566606
5.356999 -74.402673 -10.857423
5.488331 -74.256451 -10.697752
-2.793659 -74.296972 -12.189018
-2.530846 -74.313003 -12.321615
-1.260255 -73.721767 -12.420981
-1.601760 -73.837889 -12.395344
-1.226427 -73.401086 -12.231809
-0.821776 -72.912182 -12.101775
-0.776644 -72.628707 -12.009560
-4.617003 -72.651399 -10.405343
-4.587494 -72.899985 -10.491752
-3.919508 -71.903972 -10.737039
-4.123843 -71.966740 -10.632119
-4.184655 -72.215244 -10.654648
-2.684709 -71.766974 -11.144142
-2.421874 -71.768121 -11.179264
-2.899908 -71.738388 -11.099513
-3.076774 -71.772021 -11.068127
-3.209716 -71.838995 -11.045228
-1.690520 -71.947670 -11.324381
-1.966728 -71.847899 -11.255466
-1.615373 -72.168648 -11.443678
-2.220695 -71.874326 -11.251945
-3.863989 -71.728031 -10.720566
-3.511806 -71.753083 -10.894945
-3.723931 -71.827566 -10.817142
-4.396724 -72.286997 -10.512395
-4.454367 -72.517726 -10.521447
-4.259717 -74.000417 -11.171420
-4.178667 -74.132022 -11.294087
-4.622237 -73.136065 -10.524726
-4.752197 -73.286799 -10.462724
-3.836450 -74.236700 -11.595656
-3.576192 -74.108004 -11.686380
-3.291997 -74.370423 -11.970252
-3.395128 -74.214456 -11.843009
-3.017691 -74.222369 -12.036904
-1.403981 -72.262236 -11.546351
-1.193766 -72.157170 -11.579822
-0.939938 -73.087517 -12.145006
4.389702 -71.795048 -10.794084
4.198584 -71.844247 -10.899417
4.600521 -71.805146 -10.678399
3.599726 -71.798073 -11.095083
3.271786 -71.952207 -11.181785
3.533823 -71.953271 -11.136992
2.565131 -72.100699 -11.394554
2.679912 -72.200079 -11.382854
2.847993 -72.119191 -11.305726
2.251197 -72.882684 -11.751773
2.289849 -73.059359 -11.807052
2.381778 -72.932843 -11.671259
2.323764 -72.465398 -11.644671
2.408074 -72.718831 -11.617686
3.154706 -74.233492 -12.287402
2.834094 -74.255843 -12.449984
3.441106 -74.366914 -12.205043
2.190216 -73.235569 -12.009893
2.393054 -73.885260 -12.369726
2.619800 -74.024094 -12.387197
2.486614 -72.276583 -11.497433
3.093145 -71.876404 -11.173580
3.052518 -72.059829 -11.250744
3.851424 -71.749656 -11.009067
3.717920 -71.783827 -11.064304
4.037714 -71.756929 -10.949169
5.715969 -72.816898 -10.026705
5.662932 -72.557371 -10.015733
2.162261 -73.479511 -12.186243
2.433866 -73.722855 -12.235892
2.406338 -73.547873 -12.124118
-4.707997 -72.992717 -10.400688
-2.401076 -73.267207 -11.786002
-3.378426 -73.168335 -11.324887
-2.714726 -72.342923 -11.290827
-1.832869 -72.618735 -11.676814
-4.073012 -73.086577 -10.937786
-2.667758 -73.851766 -11.989740
-3.246557 -73.755567 -11.660473
-3.933311 -73.748688 -11.292432
-3.508238 -72.172370 -10.970647
-2.843026 -72.046026 -11.184234
-1.159930 -72.807682 -11.970557
-2.013957 -72.164232 -11.406889
-2.436066 -72.027801 -11.280119
-1.963625 -74.045853 -12.411224
-1.786662 -74.075030 -12.490376
-2.523872 -73.556866 -11.884253
-1.958041 -73.531053 -12.090092
-2.143683 -73.770126 -12.163353
-3.342305 -73.492608 -11.485953
-3.554428 -73.675616 -11.471739
-3.713528 -73.511683 -11.312575
-4.015627 -74.137403 -11.423458
-4.062449 -73.973714 -11.310803
-3.867341 -73.993973 -11.458174
-2.924529 -74.003661 -11.958718
-2.788640 -74.092879 -12.081342
-3.188385 -72.353977 -11.122568
-3.070708 -72.163852 -11.132099
-2.977569 -73.762370 -11.792174
-2.935022 -73.452342 -11.649504
-3.095386 -73.986264 -11.867025
-1.097138 -73.182010 -12.149124
-1.076468 -72.997546 -12.072884
-1.204072 -73.017888 -12.054859
-1.459916 -73.562052 -12.261084
-1.782005 -73.280523 -12.013231
-2.327139 -73.994623 -12.228293
-3.194670 -74.158054 -11.917971
-1.536443 -72.434022 -11.624343
-1.702403 -72.334902 -11.526426
-2.543020 -71.905408 -11.217435
-2.621794 -72.045553 -11.239018
-2.702745 -71.924599 -11.189930
-3.462361 -73.869587 -11.615374
-3.303303 -74.003643 -11.771405
-3.680248 -73.909095 -11.525547
-3.978916 -73.439389 -11.123390
-3.700330 -73.163780 -11.170471
-3.988847 -72.104315 -10.749168
-3.761117 -72.058417 -10.846141
-3.890726 -72.248063 -10.826205
-2.122726 -72.893342 -11.716850
-1.587356 -73.020886 -11.946282
-2.274216 -72.498893 -11.491623
-2.620318 -72.775594 -11.478000
-4.446366 -73.871056 -10.967888
-4.148061 -73.844959 -11.185166
-4.319881 -73.848588 -11.055861
-4.180888 -73.672773 -11.081448
-2.920340 -73.156158 -11.518094
-3.088472 -72.716847 -11.268530
-3.553925 -72.723219 -11.081647
-0.987898 -72.896712 -12.051558
-4.627290 -73.343812 -10.591465
-4.513483 -73.286136 -10.668015
-0.959988 -72.718885 -11.983150
-1.219261 -72.372383 -11.688129
-1.339693 -72.535872 -11.756146
-1.393790 -72.777029 -11.886068
-1.798935 -72.098275 -11.393915
-1.909284 -72.010258 -11.345983
-1.813575 -72.230864 -11.457529
-2.247681 -72.289303 -11.413996
-1.962183 -72.403031 -11.527003
-2.568541 -74.088318 -12.183578
-2.109261 -72.002505 -11.325464
-2.494247 -72.192434 -11.314522
-2.267435 -72.114036 -11.344532
-2.382772 -71.910854 -11.250835
-2.941348 -71.870501 -11.135030
-3.071233 -71.945598 -11.110056
-2.813446 -71.865843 -11.157902
-4.405894 -72.942515 -10.665235
-4.450298 -73.137158 -10.676991
-3.274883 -72.003135 -11.043991
-3.445406 -71.927275 -10.965891
-3.345434 -71.826380 -10.997219
-4.260714 -73.451581 -10.931074
-4.282334 -72.734110 -10.713861
-4.273572 -72.473099 -10.658605
-4.060332 -72.589395 -10.815822
-4.455722 -72.722099 -10.571551
-4.354463 -73.271617 -10.794773
-1.114884 -72.564803 -11.852757
-2.285875 -71.988011 -11.296245
-3.587524 -71.937436 -10.903208
-3.796066 -72.646343 -10.956245
-1.949580 -74.158745 -12.483730
-1.818250 -73.930155 -12.389364
-2.323993 -73.654062 -12.021531
-2.403563 -73.790615 -12.068229
-2.172557 -73.389830 -11.935696
-2.249548 -73.522325 -11.977861
-1.756997 -73.682203 -12.246549
-1.859887 -73.779600 -12.273910
-3.539810 -73.503128 -11.397385
-3.539717 -73.358544 -11.332681
-3.400355 -73.700571 -11.558065
-3.735836 -73.736667 -11.407837
3.830663 -74.545964 -12.050361
-2.878546 -72.224616 -11.206413
-2.981342 -72.364383 -11.202909
3.621298 -74.605143 -12.213009
-3.361064 -72.339865 -11.054216
-3.273662 -72.204508 -11.062686
-2.783715 -72.196153 -11.231085
-2.759510 -73.614381 -11.811271
-3.124222 -73.576713 -11.625732
-2.728217 -73.478514 -11.753214
-2.698943 -73.330651 -11.693196
-4.159095 -74.343122 -11.399230
-3.056045 -74.098883 -11.953862
-3.149415 -73.877116 -11.774532
-1.248157 -73.181708 -12.112697
-1.593385 -73.442063 -12.152962
-1.597336 -74.189523 -12.599735
-1.496523 -73.332573 -12.118748
-1.679141 -73.561785 -12.197893
-2.095778 -73.263400 -11.899413
-1.971188 -73.903247 -12.316824
3 301 58 56
3 344 385 324
3 337 339 325
3 346 407 409
3 343 408 407
3 393 409 408
3 407 408 409
3 350 410 411
3 391 411 410
3 316 350 411
3 8 400 511
3 319 511 400
3 391 410 414
3 410 416 414
3 320 417 49
3 353 49 417
3 396 418 419
3 353 417 418
3 418 417 419
3 319 420 318
3 320 318 420
3 349 423 348
3 350 348 423
3 328 426 428
3 398 427 426
3 395 428 427
3 426 427 428
3 347 429 430
3 392 430 429
3 349 347 430
3 393 432 406
3 390 433 432
3 406 432 433
3 325 435 434
3 434 435 436
3 343 407 506
3 346 506 407
3 347 431 429
3 429 431 405
3 301 441 58
3 60 58 441
3 342 442 408
3 393 408 442
3 343 342 408
3 342 443 442
3 301 444 443
3 393 442 444
3 443 444 442
3 353 418 448
3 396 448 418
3 321 353 448
3 345 449 63
3 302 63 449
3 349 430 423
3 430 416 423
3 60 441 443
3 301 443 441
3 342 60 443
3 344 450 449
3 302 449 450
3 345 344 449
3 321 448 451
3 396 451 448
3 322 321 451
3 35 452 352
3 351 352 452
3 333 455 456
3 397 456 455
3 334 333 456
3 335 457 455
3 397 455 457
3 333 335 455
3 397 459 458
3 458 459 439
3 316 411 460
3 391 460 411
3 317 316 460
3 334 456 461
3 397 461 456
3 336 334 461
3 398 463 462
3 397 458 463
3 462 463 458
3 329 464 426
3 398 426 464
3 328 329 426
3 331 465 466
3 395 466 465
3 332 331 466
3 330 467 465
3 395 465 467
3 331 330 465
3 328 428 467
3 395 467 428
3 330 328 467
3 332 470 472
3 394 471 470
3 338 472 471
3 470 471 472
3 398 462 427
3 393 444 432
3 301 473 444
3 390 432 473
3 444 473 432
3 474 475 476
3 341 477 323
3 324 323 477
3 302 450 478
3 344 469 450
3 478 450 469
3 327 475 340
3 341 340 475
3 35 479 452
3 479 453 452
3 336 480 464
3 398 464 480
3 329 336 464
3 332 466 470
3 395 413 466
3 466 413 470
3 302 478 473
3 390 473 478
3 301 302 473
3 338 471 481
3 394 481 471
3 339 338 481
3 339 481 435
3 394 435 481
3 325 339 435
3 397 457 459
3 335 425 457
3 457 425 459
3 325 434 326
3 327 326 434
3 324 477 468
3 477 474 468
3 398 480 463
3 336 461 480
3 397 463 461
3 480 461 463
3 332 472 147
3 338 147 472
3 396 479 451
3 400 483 399
3 6 399 483
3 399 484 400
3 319 400 484
3 6 483 8
3 400 8 483
3 401 485 486
3 403 486 485
3 391 401 486
3 386 487 488
3 402 488 487
3 401 386 488
3 402 489 490
3 319 490 489
3 403 402 490
3 403 485 488
3 401 488 485
3 402 403 488
3 404 491 492
3 406 492 491
3 387 404 492
3 392 493 404
3 405 404 493
3 405 494 406
3 393 406 494
3 406 491 405
3 404 405 491
3 413 496 497
3 388 497 496
3 412 413 497
3 412 499 500
3 394 500 499
3 413 412 500
3 395 501 496
3 388 496 501
3 413 395 496
3 414 502 391
3 401 391 502
3 392 503 414
3 415 414 503
3 401 504 505
3 415 505 504
3 386 401 505
3 415 504 502
3 401 502 504
3 414 415 502
3 350 507 410
3 416 410 507
3 416 508 414
3 392 414 508
3 320 509 417
3 419 417 509
3 420 510 512
3 421 512 510
3 320 420 512
3 319 489 513
3 402 513 489
3 420 319 513
3 402 487 514
3 386 514 487
3 421 402 514
3 421 510 513
3 420 513 510
3 402 421 513
3 319 484 490
3 399 515 484
3 403 490 515
3 484 515 490
3 422 0 6
3 399 6 0
3 422 1 486
3 391 486 1
3 403 422 486
3 403 515 0
3 399 0 515
3 422 403 0
3 425 2 424
3 351 424 2
3 424 3 4
3 389 4 3
3 425 424 4
3 351 2 335
3 425 335 2
3 431 5 409
3 346 409 5
3 393 7 409
3 431 409 7
3 346 5 347
3 431 347 5
3 387 492 433
3 406 433 492
3 436 9 434
3 327 434 9
3 394 10 435
3 436 435 10
3 386 11 514
3 437 12 11
3 421 514 12
3 11 12 514
3 389 13 15
3 438 14 13
3 437 15 14
3 13 14 15
3 438 16 512
3 320 512 16
3 421 438 512
3 421 12 14
3 437 14 12
3 438 421 14
3 405 493 429
3 392 429 493
3 431 7 494
3 393 494 7
3 405 431 494
3 388 17 19
3 439 18 17
3 440 19 18
3 17 18 19
3 389 15 21
3 437 20 15
3 439 21 20
3 15 20 21
3 386 22 11
3 440 23 22
3 437 11 23
3 22 23 11
3 439 20 18
3 437 23 20
3 440 18 23
3 20 23 18
3 386 24 22
3 445 25 24
3 440 22 25
3 24 25 22
3 387 26 28
3 446 27 26
3 445 28 27
3 26 27 28
3 388 19 30
3 440 29 19
3 446 30 29
3 19 29 30
3 445 27 25
3 446 29 27
3 440 25 29
3 27 29 25
3 387 31 26
3 447 32 31
3 446 26 32
3 31 32 26
3 394 499 34
3 412 33 499
3 447 34 33
3 499 33 34
3 388 30 497
3 446 36 30
3 412 497 36
3 30 36 497
3 447 33 32
3 412 36 33
3 446 32 36
3 33 36 32
3 392 508 430
3 416 430 508
3 416 507 423
3 350 423 507
3 351 37 424
3 453 424 37
3 453 38 454
3 396 454 38
3 389 3 40
3 424 39 3
3 454 40 39
3 3 39 40
3 454 39 453
3 424 453 39
3 404 41 503
3 415 503 41
3 392 404 503
3 387 28 42
3 445 42 28
3 404 387 42
3 445 24 505
3 386 505 24
3 415 445 505
3 415 41 42
3 404 42 41
3 445 415 42
3 439 17 43
3 388 43 17
3 458 439 43
3 389 21 459
3 439 459 21
3 458 43 462
3 388 462 43
3 422 44 460
3 317 460 44
3 391 1 460
3 422 460 1
3 317 44 6
3 422 6 44
3 469 45 468
3 324 468 45
3 468 46 47
3 390 47 46
3 469 468 47
3 324 45 344
3 469 344 45
3 462 48 427
3 395 427 48
3 388 501 48
3 395 48 501
3 462 388 48
3 476 50 51
3 390 51 50
3 474 476 51
3 474 52 475
3 341 475 52
3 327 53 475
3 476 475 53
3 469 47 478
3 390 478 47
3 396 38 479
3 453 479 38
3 453 37 452
3 351 452 37
3 413 500 470
3 394 470 500
3 425 4 459
3 389 459 4
3 433 54 31
3 447 31 54
3 387 433 31
3 390 55 57
3 482 57 55
3 433 390 57
3 482 59 34
3 394 34 59
3 447 482 34
3 447 54 57
3 433 57 54
3 482 447 57
3 341 52 477
3 474 477 52
3 474 51 46
3 390 46 51
3 468 474 46
3 438 13 40
3 389 40 13
3 454 438 40
3 419 61 396
3 454 396 61
3 320 16 509
3 438 62 16
3 419 509 62
3 16 62 509
3 454 61 62
3 419 62 61
3 438 454 62
3 327 9 53
3 436 64 9
3 476 53 64
3 9 64 53
3 394 59 10
3 482 65 59
3 436 10 65
3 59 65 10
3 482 55 50
3 390 50 55
3 476 482 50
3 476 64 65
3 436 65 64
3 482 476 65
3 479 66 451
3 322 451 66
3 322 66 35
3 479 35 66
3 313 305 306
3 360 361 374
3 367 365 363
3 358 359 81
3 376 375 358
3 314 86 88
3 82 87 86
3 74 88 87
3 86 87 88
3 307 89 86
3 82 86 89
3 314 307 86
3 116 90 91
3 75 91 90
3 308 116 91
3 75 92 91
3 82 93 92
3 308 91 93
3 92 93 91
3 303 94 95
3 82 95 94
3 304 303 95
3 314 88 99
3 74 99 88
3 315 314 99
3 74 104 106
3 104 105 106
3 118 107 90
3 75 90 107
3 116 118 90
3 315 99 108
3 74 108 99
3 313 315 108
3 74 109 108
3 79 111 109
3 313 108 111
3 109 111 108
3 75 113 92
3 92 113 114
3 380 117 115
3 115 117 119
3 305 122 123
3 79 123 122
3 311 305 123
3 495 124 125
3 110 495 125
3 79 126 128
3 126 127 128
3 75 107 131
3 118 130 107
3 131 107 130
3 304 95 89
3 82 89 95
3 307 304 89
3 359 132 133
3 85 133 132
3 81 359 133
3 370 134 498
3 495 498 134
3 308 93 94
3 82 94 93
3 303 308 94
3 373 135 369
3 368 369 135
3 74 87 104
3 87 114 104
3 110 125 129
3 112 110 129
3 78 139 138
3 373 140 135
3 78 138 140
3 135 140 138
3 383 142 372
3 373 372 142
3 83 144 143
3 143 144 101
3 76 146 145
3 72 148 146
3 145 146 148
3 371 149 382
3 384 382 149
3 384 149 151
3 371 150 149
3 84 151 150
3 149 150 151
3 200 152 153
3 83 153 152
3 196 200 153
3 364 154 150
3 84 150 154
3 371 364 150
3 384 158 159
3 78 159 158
3 383 384 159
3 83 143 161
3 70 160 143
3 76 161 160
3 143 160 161
3 312 162 309
3 310 309 162
3 310 117 100
3 380 100 117
3 200 163 152
3 83 152 144
3 163 144 152
3 74 106 109
3 69 126 106
3 79 109 126
3 106 126 109
3 80 164 115
3 381 165 211
3 200 211 165
3 356 166 167
3 83 161 166
3 76 167 161
3 166 161 167
3 311 123 168
3 79 168 123
3 312 311 168
3 200 165 163
3 381 164 165
3 80 163 164
3 165 164 163
3 355 169 170
3 85 170 169
3 379 355 170
3 192 171 166
3 83 166 171
3 356 192 166
3 356 167 175
3 76 175 167
3 354 356 175
3 176 177 172
3 379 170 178
3 85 178 170
3 377 379 178
3 383 159 142
3 78 140 159
3 373 142 140
3 159 140 142
3 354 175 145
3 76 145 175
3 355 354 145
3 312 168 162
3 79 128 168
3 162 168 128
3 196 153 179
3 83 179 153
3 194 196 179
3 377 178 180
3 85 180 178
3 378 377 180
3 367 182 181
3 374 183 182
3 181 182 183
3 359 186 132
3 378 180 186
3 85 132 180
3 186 180 132
3 313 111 122
3 79 122 111
3 305 313 122
3 495 134 124
3 134 187 124
3 374 182 366
3 367 366 182
3 367 181 177
3 81 121 188
3 73 188 121
3 78 189 139
3 84 174 189
3 378 186 357
3 359 357 186
3 361 190 183
3 374 361 183
3 362 195 190
3 73 190 195
3 361 362 190
3 72 146 193
3 76 160 146
3 193 146 160
3 84 154 176
3 376 188 195
3 73 195 188
3 362 376 195
3 85 169 148
3 194 179 171
3 83 171 179
3 192 194 171
3 84 189 151
3 78 158 189
3 384 151 158
3 189 158 151
3 71 197 199
3 96 198 197
3 98 199 198
3 197 198 199
3 96 201 202
3 81 202 201
3 97 96 202
3 97 203 98
3 72 98 203
3 98 198 97
3 96 97 198
3 70 204 206
3 101 205 204
3 103 206 205
3 204 205 206
3 80 207 209
3 102 208 207
3 101 209 208
3 207 208 209
3 69 210 213
3 103 212 210
3 102 213 212
3 210 212 213
3 101 208 205
3 102 212 208
3 103 205 212
3 208 212 205
3 104 214 215
3 67 215 214
3 105 104 215
3 105 216 106
3 69 106 216
3 114 217 92
3 82 92 217
3 113 218 219
3 67 219 218
3 114 113 219
3 119 220 115
3 80 115 220
3 310 221 117
3 119 117 221
3 81 201 222
3 96 222 201
3 121 81 222
3 96 197 223
3 71 223 197
3 120 96 223
3 121 224 225
3 120 225 224
3 73 121 225
3 120 224 222
3 121 222 224
3 96 120 222
3 124 226 227
3 77 227 226
3 125 124 227
3 69 228 126
3 127 126 228
3 127 229 230
3 310 230 229
3 128 127 230
3 130 231 129
3 112 129 231
3 129 232 130
3 77 130 232
3 112 231 118
3 130 118 231
3 77 233 130
3 131 130 233
3 137 234 235
3 368 235 234
3 136 137 235
3 136 236 237
3 68 237 236
3 137 136 237
3 368 234 238
3 137 238 234
3 370 368 238
3 82 217 87
3 114 87 217
3 114 219 214
3 67 214 219
3 104 114 214
3 125 227 232
3 77 232 227
3 129 125 232
3 68 236 239
3 136 239 236
3 139 68 239
3 136 235 240
3 368 240 235
3 138 136 240
3 139 239 138
3 136 138 239
3 138 240 135
3 368 135 240
3 70 206 242
3 103 241 206
3 141 242 241
3 206 241 242
3 69 216 210
3 105 243 216
3 103 210 243
3 216 243 210
3 67 244 215
3 141 245 244
3 105 215 245
3 244 245 215
3 103 243 241
3 105 245 243
3 141 241 245
3 243 245 241
3 101 204 143
3 70 143 204
3 144 246 209
3 80 209 246
3 101 144 209
3 148 247 145
3 355 145 247
3 133 248 203
3 72 203 248
3 97 133 203
3 97 202 133
3 81 133 202
3 85 249 248
3 72 248 249
3 133 85 248
3 77 250 252
3 155 251 250
3 157 252 251
3 250 251 252
3 71 253 255
3 156 254 253
3 155 255 254
3 253 254 255
3 67 256 258
3 157 257 256
3 156 258 257
3 256 257 258
3 155 254 251
3 156 257 254
3 157 251 257
3 254 257 251
3 80 246 163
3 144 163 246
3 164 259 115
3 380 115 259
3 380 259 381
3 164 381 259
3 119 221 229
3 310 229 221
3 127 119 229
3 127 228 213
3 69 213 228
3 102 127 213
3 80 220 207
3 119 260 220
3 102 207 260
3 220 260 207
3 102 260 127
3 119 127 260
3 84 261 262
3 172 262 261
3 174 84 262
3 73 263 265
3 173 264 263
3 172 265 264
3 263 264 265
3 68 266 268
3 174 267 266
3 173 268 267
3 266 267 268
3 172 264 262
3 173 267 264
3 174 262 267
3 264 267 262
3 172 261 176
3 84 176 261
3 365 269 176
3 177 176 269
3 177 270 265
3 73 265 270
3 172 177 265
3 128 230 162
3 310 162 230
3 183 271 272
3 73 272 271
3 181 183 272
3 77 273 250
3 184 274 273
3 155 250 274
3 273 274 250
3 68 275 277
3 185 276 275
3 184 277 276
3 275 276 277
3 71 255 279
3 155 278 255
3 185 279 278
3 255 278 279
3 184 276 274
3 185 278 276
3 155 274 278
3 276 278 274
3 370 280 134
3 187 134 280
3 187 281 226
3 77 226 281
3 124 187 226
3 181 272 270
3 73 270 272
3 177 181 270
3 177 269 367
3 365 367 269
3 376 282 188
3 81 188 282
3 139 283 266
3 174 266 283
3 68 139 266
3 174 283 189
3 139 189 283
3 68 268 275
3 173 284 268
3 185 275 284
3 268 284 275
3 73 225 263
3 120 285 225
3 173 263 285
3 225 285 263
3 71 279 223
3 185 286 279
3 120 223 286
3 279 286 223
3 173 285 284
3 120 286 285
3 185 284 286
3 285 286 284
3 73 271 190
3 183 190 271
3 67 258 244
3 156 287 258
3 141 244 287
3 258 287 244
3 71 288 253
3 191 289 288
3 156 253 289
3 288 289 253
3 70 242 291
3 141 290 242
3 191 291 290
3 242 290 291
3 156 289 287
3 191 290 289
3 141 287 290
3 289 290 287
3 193 292 72
3 98 72 292
3 193 293 291
3 70 291 293
3 191 193 291
3 71 199 288
3 98 294 199
3 191 288 294
3 199 294 288
3 191 294 292
3 98 292 294
3 193 191 292
3 70 293 160
3 193 160 293
3 131 295 75
3 113 75 295
3 77 252 233
3 157 296 252
3 131 233 296
3 252 296 233
3 157 256 218
3 67 218 256
3 113 157 218
3 113 295 296
3 131 296 295
3 157 113 296
3 68 277 237
3 184 297 277
3 137 237 297
3 277 297 237
3 77 281 273
3 187 298 281
3 184 273 298
3 281 298 273
3 370 238 280
3 137 299 238
3 187 280 299
3 238 299 280
3 184 298 297
3 187 299 298
3 137 297 299
3 298 299 297
3 154 300 176
3 365 176 300
3 365 300 364
3 154 364 300
3 355 247 169
3 148 169 247
3 72 249 148
3 85 148 249
3 81 282 358
3 376 358 282
