ply
format ascii 1.0
comment Exported by RapidForm
element vertex 98
property float x
property float y
property float z
element face 163
property list uchar int vertex_index
end_header
-5.215786 -75.419497 -8.334563
-5.921296 -75.446069 -7.235334
-5.447772 -72.909595 -7.762200
-1.135173 -76.619342 -10.625129
-0.148633 -76.673138 -10.845735
0.111099 -77.508109 -10.779293
-2.040197 -77.271083 -10.644526
-2.428854 -76.525427 -10.398306
-1.513858 -75.875171 -10.348043
-0.598532 -75.607814 -10.518623
-2.750875 -76.147357 -10.226581
-5.025663 -76.197721 -8.792226
-5.740364 -77.206155 -7.848674
-4.864878 -77.128375 -9.288277
0.769404 -76.954188 -10.812309
2.032984 -77.517153 -10.599966
2.186013 -77.015342 -10.527351
-2.483230 -78.051129 -10.422596
0.756142 -75.819706 -10.505883
1.688123 -76.204243 -10.265113
3.816098 -77.459091 -9.873998
-3.728057 -77.997530 -9.992609
-3.414539 -77.007494 -10.134077
-4.319819 -77.172284 -9.803171
3.259717 -76.412488 -9.802481
5.574576 -77.985447 -6.882589
4.576721 -78.228173 -8.460945
5.130603 -77.370537 -8.070572
5.718324 -75.738607 -7.503596
-0.122063 -78.730546 -10.340320
1.460032 -78.148505 -10.509176
2.273761 -78.128597 -10.325421
2.612225 -73.286418 -9.433928
1.704548 -73.390408 -10.581948
2.800392 -72.459648 -9.871756
2.052272 -74.228543 -9.394238
1.744481 -74.084022 -9.871587
-4.999301 -73.694747 -8.308674
-4.736491 -70.550102 -8.411115
-5.660008 -71.284257 -7.410524
0.260434 -75.002327 -10.648458
0.672118 -74.865119 -10.522274
0.364770 -75.381689 -10.604481
-0.604256 -74.852612 -10.280806
-0.169217 -75.081827 -10.552811
-4.458193 -73.833143 -8.679106
-4.004577 -71.105853 -8.971948
-2.646866 -71.010893 -9.776440
-2.254468 -72.631401 -9.704891
-3.530156 -72.438848 -9.156933
-4.682053 -74.912558 -8.788723
-4.438085 -76.301438 -9.476130
-3.827987 -76.051164 -9.844165
4.928813 -76.793467 -9.062258
-2.573297 -73.185804 -9.404721
-1.211394 -75.129989 -9.776630
-1.113752 -74.602858 -9.595212
-1.632916 -73.800367 -9.494280
4.703782 -76.311122 -9.176120
4.335410 -75.407769 -9.107954
2.754486 -75.965170 -9.746626
1.553152 -74.930421 -9.755111
2.014444 -74.942272 -9.428674
4.143601 -77.636777 -9.469308
5.644599 -74.155185 -7.839657
5.239877 -75.157246 -8.307961
2.124102 -75.266324 -9.490826
1.678038 -75.576377 -9.862683
-1.193581 -73.651013 -9.900815
4.932135 -75.069037 -8.640019
4.899173 -74.131127 -8.521651
2.227346 -72.277974 -10.567406
2.614616 -71.364433 -10.304285
3.117641 -71.684439 -9.883137
4.471215 -72.110105 -8.851042
-6.149646 -73.792070 -6.535880
1.073142 -74.755667 -10.171452
-0.355558 -74.561644 -10.629716
-0.799654 -74.400258 -10.092225
5.962378 -72.497129 -7.717092
1.078629 -75.446823 -10.036063
3.579441 -73.026403 -9.200799
-1.875803 -71.800604 -10.295658
-2.510415 -74.533222 -9.543885
-3.516167 -75.120501 -9.479464
-2.763726 -75.532144 -9.905058
-3.742583 -74.520727 -9.170352
-3.335827 -73.596375 -9.189271
-3.516091 -74.129371 -9.170589
-2.005775 -75.261220 -9.910889
2.415731 -75.035289 -9.436640
3.165724 -74.746533 -9.250918
2.989737 -73.974077 -9.234848
3.657487 -74.102532 -9.054680
3.484556 -73.611115 -9.123511
4.059873 -74.502674 -8.977543
4.559977 -74.564211 -8.787390
4.194801 -73.714501 -8.884375
3 0 1 2
3 3 4 5
3 6 3 5
3 6 7 3
3 7 8 3
3 3 8 9
3 10 8 7
3 0 11 12
3 11 13 12
3 4 14 5
3 5 14 15
3 16 15 14
3 5 17 6
3 14 18 19
3 14 19 16
3 15 16 20
3 17 21 22
3 21 23 22
3 19 24 16
3 0 12 1
3 25 26 27
3 28 25 27
3 29 17 5
3 5 30 29
3 5 15 30
3 31 30 15
3 15 20 31
3 32 33 34
3 35 36 32
3 37 2 38
3 39 38 2
3 3 9 4
3 40 41 42
3 14 42 18
3 9 43 44
3 9 44 4
3 40 42 44
3 14 4 42
3 44 42 4
3 45 37 46
3 38 46 37
3 47 48 49
3 17 22 6
3 7 6 22
3 50 0 37
3 0 50 11
3 51 11 50
3 7 22 52
3 16 24 20
3 26 53 27
3 28 27 53
3 48 54 49
3 9 55 56
3 23 51 22
3 52 22 51
3 50 52 51
3 57 54 48
3 45 46 49
3 58 24 59
3 24 60 59
3 51 13 11
3 61 35 62
3 20 58 63
3 26 63 53
3 58 53 63
3 64 28 65
3 65 28 58
3 28 53 58
3 20 24 58
3 66 67 61
3 66 60 67
3 37 45 50
3 68 57 48
3 69 70 65
3 64 65 70
3 61 62 66
3 69 65 58
3 49 46 47
3 33 71 34
3 72 73 71
3 71 73 34
3 74 34 73
3 39 2 75
3 75 2 1
3 76 36 61
3 36 35 61
3 42 41 76
3 41 33 76
3 77 43 78
3 9 56 43
3 43 56 78
3 77 78 68
3 60 19 67
3 78 56 68
3 7 52 10
3 74 64 70
3 74 79 64
3 67 19 80
3 42 80 18
3 19 18 80
3 67 80 61
3 42 76 80
3 80 76 61
3 8 55 9
3 74 81 34
3 82 68 48
3 59 69 58
3 60 24 19
3 81 32 34
3 36 76 33
3 2 37 0
3 13 51 23
3 36 33 32
3 82 48 47
3 43 77 44
3 40 44 77
3 83 56 55
3 57 68 56
3 83 54 57
3 57 56 83
3 52 84 85
3 83 85 84
3 10 52 85
3 50 86 84
3 83 84 86
3 52 50 84
3 10 85 8
3 54 87 49
3 45 49 87
3 45 88 86
3 83 86 88
3 50 45 86
3 83 88 87
3 45 87 88
3 54 83 87
3 83 89 85
3 8 85 89
3 8 89 55
3 83 55 89
3 66 62 90
3 59 60 91
3 91 60 90
3 66 90 60
3 35 90 62
3 91 90 35
3 91 92 93
3 32 94 92
3 93 92 94
3 59 95 96
3 69 59 96
3 91 93 95
3 59 91 95
3 32 92 35
3 91 35 92
3 32 81 94
3 69 96 70
3 70 97 74
3 97 81 74
3 97 96 95
3 70 96 97
3 94 81 97
3 97 93 94
3 95 93 97
